<?xml version="1.0" encoding="UTF-8" standalone="no"?>
<svg width="700px" height="184px" viewBox="0 0 700 184" version="1.1" xmlns="http://www.w3.org/2000/svg" xmlns:xlink="http://www.w3.org/1999/xlink" xmlns:sketch="http://www.bohemiancoding.com/sketch/ns">
    <!-- Generator: Sketch 3.3.2 (12043) - http://www.bohemiancoding.com/sketch -->
    <title>Artboard</title>
    <desc>Created with Sketch.</desc>
    <defs></defs>
    <g id="Page-1" stroke="none" stroke-width="1" fill="none" fill-rule="evenodd" sketch:type="MSPage">
        <g id="Artboard" sketch:type="MSArtboardGroup">
            <g id="dredd1" sketch:type="MSLayerGroup" transform="translate(275.000000, 15.000000)">
                <g id="Group-5" sketch:type="MSShapeGroup">
                    <path d="M105.903584,113.888736 L103.025793,137.476519 L103.654233,134.982481 C103.654233,134.982481 112.220116,145.192594 112.81934,144.009623 C119.811641,130.206142 115.884698,105.357302 117.141577,104.422038 L105.903584,113.888736 L105.903584,113.888736 Z M106.796138,24.0024811 C91.9397245,0.467339623 67.1349192,0.0403584906 61.6904893,0.247122642 C59.7543349,0.0915377358 31.9218599,-1.67136792 15.8234679,23.9708962 C2.69928029,44.8760094 2.94323515,62.2567736 2.94323515,62.2567736 L60.950152,111.782491 L60.9513207,112.167358 L61.1768694,111.976094 L61.4605582,112.218245 L61.4623112,111.733651 L119.734803,62.2523868 C119.734803,62.2523868 119.979926,44.888 106.796138,24.0024811 L106.796138,24.0024811 Z M5.52506651,104.465613 C6.77610214,105.401755 2.86668884,130.273991 9.82772922,144.09034 C10.424323,145.274481 18.9513492,135.054717 18.9513492,135.054717 L19.576867,137.551094 L16.7122233,113.941085 L5.52506651,104.465613 L5.52506651,104.465613 Z" id="Fill-1" fill="#0A0B09"></path>
                    <path d="M14.6457648,124.984981 C14.6457648,124.984981 61.932399,110.338651 105.975164,124.984981 C110.666694,126.545217 114.497515,92.9801132 114.497515,92.9801132 L119.424235,64.7625094 L59.4224394,95.5645189 L1.19640143,61.9543774 L5.2077791,88.6731604 L14.6457648,124.984981" id="Fill-3" fill="#0A0B09"></path>
                    <path d="M116.263924,116.34183 C122.266382,113.190358 120.36295,108.252 120.471634,107.698679 C125.806796,80.5529151 120.576812,48.5038868 120.471634,49.048434 C118.476755,59.3793302 82.5569572,78.8025849 61.4412755,89.4080943 C40.3691259,78.8277358 4.38680523,59.3831321 2.39134204,49.048434 C2.28645606,48.5044717 -2.93622328,80.5128491 2.39134204,107.624104 C2.50002613,108.17684 0.599223278,113.108764 6.59320903,116.256434 C12.5871948,119.403811 13.4289121,121.719453 13.5659359,127.366717 C13.7029596,133.014274 14.3585701,135.42233 10.2189335,137.644094 C6.07929691,139.865858 4.08324941,143.754896 4.08324941,143.754896 L6.31448694,154.865472 C6.31448694,154.865472 8.97228029,146.845245 21.6541354,143.477066 C21.7850238,143.442557 17.0207458,98.1486321 17.0207458,98.1486321 C17.0207458,98.1486321 8.58049169,83.7602453 9.2758361,70.5834906 C9.2758361,70.5834906 27.6752922,85.2169528 50.1337482,94.9556321 C47.6944917,96.1225189 46.2795534,96.7779057 46.2795534,96.7779057 C46.2795534,96.7779057 52.0395178,101.869509 52.4240024,101.784113 C55.4537173,101.109425 58.484601,100.258972 61.4871449,99.2783774 C64.4221995,100.231189 67.3832565,101.057953 70.3434371,101.717142 C70.7273373,101.802538 76.4794133,96.7173679 76.4794133,96.7173679 C76.4794133,96.7173679 75.1202779,96.087717 72.7733444,94.9655755 C95.21281,85.2146132 113.577499,70.6109811 113.577499,70.6109811 C114.27372,83.8044057 105.821779,98.211217 105.821779,98.211217 C105.821779,98.211217 101.050781,143.562462 101.18167,143.597264 C113.881639,146.969538 116.54323,155 116.54323,155 L118.777682,143.875387 C118.777682,143.875387 116.77842,139.981377 112.632941,137.756689 C108.487461,135.532292 109.14424,133.121019 109.281556,127.466443 C109.41858,121.811868 110.261466,119.493594 116.263924,116.34183" id="Fill-4" fill="#BC3C3E"></path>
                </g>
                <path d="M41.8360689,18.3248019 L81.7657838,18.3248019 L79.2701401,70.8367547 C79.2701401,70.8367547 61.908734,82.026 61.8009264,82.026 C61.765867,82.026 44.3317126,70.8367547 44.3317126,70.8367547 L41.8360689,18.3248019" id="Fill-6" fill="#F4B42B" sketch:type="MSShapeGroup"></path>
                <path d="M42.6696057,35.8582264 L42.7481971,37.581066 L52.765247,37.581066 L52.765247,76.2465472 L54.4863705,77.3499717 L54.4863705,37.581066 L69.1157743,37.581066 L69.1157743,77.3499717 L70.8366057,76.2638019 L70.8366057,37.581066 L80.8504418,37.581066 L80.9325392,35.8582264 L42.6696057,35.8582264" id="Fill-7" fill="#AF7C31" sketch:type="MSShapeGroup"></path>
                <path d="M50.1498171,23.3117075 L51.4391259,25.9741981 L54.3671686,26.3789528 L52.2361425,28.4293396 L52.7564822,31.3418774 L50.1498171,29.9462925 L47.5434442,31.3418774 L48.0637838,28.4293396 L45.9324656,26.3789528 L48.8605083,25.9741981 L50.1498171,23.3117075" id="Fill-8" fill="#AE7D31" sketch:type="MSShapeGroup"></path>
                <path d="M61.8009264,23.3117075 L63.0902352,25.9741981 L66.0182779,26.3789528 L63.8872518,28.4293396 L64.4075914,31.3418774 L61.8009264,29.9462925 L59.1945534,31.3418774 L59.7148931,28.4293396 L57.5835748,26.3789528 L60.5116176,25.9741981 L61.8009264,23.3117075" id="Fill-9" fill="#AE7D31" sketch:type="MSShapeGroup"></path>
                <path d="M73.3331259,23.3117075 L74.6224347,25.9741981 L77.5504774,26.3789528 L75.4191591,28.4293396 L75.9394988,31.3418774 L73.3331259,29.9462925 L70.7264608,31.3418774 L71.2468005,28.4293396 L69.1157743,26.3789528 L72.0438171,25.9741981 L73.3331259,23.3117075" id="Fill-10" fill="#AE7D31" sketch:type="MSShapeGroup"></path>
            </g>
            <text id="DREDD" sketch:type="MSTextLayer" font-family="Proxima Nova" font-size="60" font-weight="bold" line-spacing="60" fill="#0B0B0A">
                <tspan x="33" y="114">DREDD</tspan>
            </text>
            <text id="No-more-outdated" sketch:type="MSTextLayer" font-family="TitilliumText25L" font-size="28" font-weight="206" line-spacing="35" fill="#0B0B0A">
                <tspan x="435" y="85">No more outdated</tspan>
                <tspan x="435" y="121">API Documentation</tspan>
            </text>
        </g>
    </g>
</svg>