<?xml version="1.0" encoding="UTF-8" standalone="no"?>
<svg width="6600px" height="1731px" viewBox="0 0 6600 1731" version="1.1" xmlns="http://www.w3.org/2000/svg" xmlns:xlink="http://www.w3.org/1999/xlink" xmlns:sketch="http://www.bohemiancoding.com/sketch/ns">
    <title>Dredd</title>
    <description>Created with Sketch (http://www.bohemiancoding.com/sketch)</description>
    <defs>
        <linearGradient x1="21.3381805%" y1="21.047493%" x2="50%" y2="50%" id="linearGradient-1">
            <stop stop-color="#000000" offset="0%"></stop>
            <stop stop-color="#1B1B1B" offset="100%"></stop>
        </linearGradient>
        <linearGradient x1="50%" y1="0%" x2="50%" y2="100%" id="linearGradient-2">
            <stop stop-color="#61604B" offset="0%"></stop>
            <stop stop-color="#000000" offset="100%"></stop>
        </linearGradient>
        <linearGradient x1="13.6120631%" y1="3.02895306%" x2="37.2101683%" y2="53.7975141%" id="linearGradient-3">
            <stop stop-color="#FFFFFF" offset="0%"></stop>
            <stop stop-color="#000000" offset="100%"></stop>
        </linearGradient>
        <linearGradient x1="50%" y1="0%" x2="-43.3414858%" y2="57.4253478%" id="linearGradient-4">
            <stop stop-color="#FFFFFF" offset="0%"></stop>
            <stop stop-color="#000000" offset="100%"></stop>
        </linearGradient>
        <path d="M2447.26562,1578.57418 C2422.49608,1591.25386 2423.11914,1602.13672 2423.11914,1602.13672 C2423.11914,1602.13672 2406.14648,1583.3457 2400.04883,1548.20703 C2393.95117,1513.06836 2391.38867,1487.60352 2391.38867,1487.60352 C2391.38867,1487.60352 2388.91211,1479.88086 2403.48047,1469.7832 C2418.04883,1459.68555 2467.09766,1435.55469 2467.09766,1435.55469 C2467.09766,1435.55469 2478.88281,1434.17187 2478.88281,1412.04688 C2478.88282,1389.92188 2455.2793,1265.74805 2455.2793,1265.74805 C2455.2793,1265.74805 2453.89062,1258.88672 2450.48047,1255.7832 C2447.07031,1252.67969 2423.11133,1239.31055 2423.11133,1239.31055 C2423.11133,1239.31055 2381.41016,1221.94336 2365.88281,1198.95703 C2350.35547,1175.9707 2347.10547,1165.68555 2347.10547,1165.68555 C2347.10547,1165.68555 2339.4668,1152.5332 2336.05664,1078.7832 C2332.64648,1005.0332 2334.11914,862.103516 2334.11914,862.103516 L2342.125,630.832031 C2342.125,630.832031 2352.50781,528.039056 2362.38281,487.671875 C2372.25781,447.304688 2386.29883,427.464844 2386.29883,427.464844 C2386.29883,427.464844 2390.59766,422.75 2390.59766,430.263672 C2390.59765,437.777344 2390.07617,439.242186 2395.0625,444.693359 C2400.04883,450.144531 2417.66015,479.248034 2521.98633,527.685547 C2626.31251,576.12305 2986.33398,729.609375 2986.33398,729.609375 L3316.6875,587.916016 C3316.6875,587.916016 3442.52929,533.080075 3461.39648,522.810547 C3480.26368,512.541019 3583.81835,452.949219 3583.81836,440.207031 C3583.81837,427.464844 3587.76367,430.761719 3587.76367,430.761719 C3587.76367,430.761719 3629.83398,495.005872 3629.83398,638.783203 C3629.83399,782.560535 3633.61719,977.818359 3633.61719,977.818359 L3631.17969,1131.71289 C3631.17969,1131.71289 3627.93163,1184.40818 3602.88281,1204.95703 C3577.83399,1225.50588 3548.07617,1240.76172 3548.07617,1240.76172 C3548.07617,1240.76172 3530.14453,1250.31053 3524.04102,1255.93555 C3517.93751,1261.56057 3517.07031,1263.4824 3514.48633,1284.69922 C3511.90235,1305.91603 3494.52734,1405.92188 3494.52734,1405.92188 C3494.52734,1405.92188 3489.8457,1426.62498 3502.16602,1433.00586 C3514.48633,1439.38674 3564.54101,1462.32231 3574.17969,1473.28906 C3583.81837,1484.25582 3578.70117,1509.42973 3578.70117,1512.14453 C3578.70118,1514.85933 3568.7832,1569.33989 3564.52734,1577.74219 C3560.27149,1586.14449 3550.28516,1603.0957 3550.28516,1603.0957 C3550.28516,1603.0957 3557.31249,1593.52543 3531.6875,1578.57422 C3506.06251,1563.623 3407.52734,1533.4082 3407.52734,1533.4082 L3413.41602,1222.42188 L3407.86133,873.421875 L3479.95898,736.394531 L3550.40234,657.720703 L3543.25781,652.076172 C3543.25781,652.076172 3420.23632,666.351576 3322.92383,710.949219 C3225.61133,755.546863 3115.34766,817.902344 3115.34766,817.902344 C3115.34766,817.902344 3098.3496,826.23634 3104.99414,838.853516 C3111.63868,851.470691 3225,980.103516 3225,980.103516 C3225,980.103516 3233.86328,988.783185 3224.36914,995.408203 C3214.87501,1002.03322 3149.33398,1044.52539 3149.33398,1044.52539 C3149.33398,1044.52539 3143.10546,1050.4199 3126.52148,1035.44922 C3109.93751,1020.47853 2987.11914,910.005859 2987.11914,910.005859 L2839.67383,1039.83984 C2839.67383,1039.83984 2828.82812,1047.28318 2823.44531,1044.6582 C2818.06251,1042.03322 2748.85547,995.935547 2748.85547,995.935547 C2748.85547,995.935547 2738.79687,988.86131 2745.3125,981.804688 C2751.82813,974.748065 2868.23047,840.464844 2868.23047,840.464844 C2868.23047,840.464844 2876.65429,832.394543 2864.10547,822.755859 C2851.55665,813.117175 2753.96679,755.462904 2677.61914,723.484375 C2601.27149,691.505847 2433.91601,644.582034 2430.1875,654.242191 C2426.45898,663.902347 2491.7168,735.582031 2491.7168,735.582031 L2564.58398,875.416016 L2565.625,1531.45703 C2565.625,1531.45703 2472.03516,1565.89449 2447.26562,1578.57418 Z M2447.26562,1578.57418" id="path-5" stroke="none" fill-rule="evenodd" sketch:type="MSShapeGroup"></path>
        <linearGradient x1="50%" y1="0%" x2="87.8010161%" y2="71.5573796%" id="linearGradient-6">
            <stop stop-color="#A33434" offset="0%"></stop>
            <stop stop-color="#290303" offset="100%"></stop>
        </linearGradient>
        <path d="M2425.98438,458.945312 C2425.98438,458.945312 2389.25782,517.078125 2389.25781,640.109375 C2389.25781,763.140625 2382.89844,733.226572 2425.45312,790.890625 C2468.00781,848.554688 2426.08984,896.938476 2431.78906,1071.30469 C2437.48828,1245.6709 2471.38574,1222.38965 2471.38574,1222.38965 L2532.05957,1380.5293 C2532.05957,1380.5293 2580.88281,1506.94434 2580.88281,1545.16309 C2580.88281,1583.38184 2459.98438,1596.96875 2459.98438,1596.96875 L2294.09375,1655.91406 L2351.14844,385.25 L2425.98438,458.945312 Z M2425.98438,458.945312" id="path-7" stroke="none" opacity="0.270951705" fill-rule="evenodd" sketch:type="MSShapeGroup"></path>
        <linearGradient x1="50%" y1="0%" x2="50%" y2="100%" id="linearGradient-8">
            <stop stop-color="#FFC432" offset="0%"></stop>
            <stop stop-color="#F69100" offset="100%"></stop>
        </linearGradient>
        <linearGradient x1="50%" y1="0%" x2="50%" y2="100%" id="linearGradient-9">
            <stop stop-color="#D8D8D8" offset="0%"></stop>
            <stop stop-color="#22211A" offset="100%"></stop>
        </linearGradient>
        <mask id="mask-10" fill="white">
            <use xlink:href="#path-5"></use>
            <use xlink:href="#path-7"></use>
        </mask>
    </defs>
    <g id="Page-1" stroke="none" stroke-width="1" fill="none" fill-rule="evenodd" sketch:type="MSPage">
        <path d="M2533.97656,1523.55469 C2533.97656,1523.55469 2717.27343,1670 2802.65625,1697.30469 C2888.03906,1724.60938 3007.34277,1729.71875 3007.34277,1729.71875 C3007.34277,1729.71875 3103.15039,1735.46094 3215.85352,1697.30469 C3328.55664,1659.14844 3446.03125,1527.88281 3446.03125,1527.88281 L3439.94531,1183.66406 L2996.53125,1159.52344 L2540.75781,1205.88281 L2533.97656,1523.55469 Z M2533.97656,1523.55469" id="Path-17" fill="#CDAF94" sketch:type="MSShapeGroup"></path>
        <path d="M2358.33594,1156.57812 C2358.33594,1156.57812 2379.42969,1408.44531 2396.70312,1497.46875 C2413.97656,1586.49219 2518.17188,1455.57812 2518.17188,1455.57812 L2493.17188,1210.6875 L2358.33594,1156.57812 Z M2358.33594,1156.57812" id="Path-11" fill="#000000" sketch:type="MSShapeGroup"></path>
        <path d="M3455.17188,1156.57812 C3455.17188,1156.57812 3476.26562,1408.44531 3493.53906,1497.46875 C3510.8125,1586.49219 3615.00781,1455.57812 3615.00781,1455.57812 L3590.00781,1210.6875 L3455.17188,1156.57812 Z M3455.17188,1156.57812" id="Path-11" fill="#000000" sketch:type="MSShapeGroup" transform="translate(3535.089844, 1342.531863) scale(-1, 1) translate(-3535.089844, -1342.531863) "></path>
        <path d="M2387.49219,433.527344 C2387.49219,433.527344 2436.62109,300.374993 2499.48047,237.597656 C2562.33984,174.820313 2560.29688,553.304688 2560.29688,553.304688 L2413.29688,483.335938 L2387.49219,433.527344 Z M2387.49219,433.527344" id="Path-8" fill="#000000" sketch:type="MSShapeGroup"></path>
        <path d="M3414.95333,439.310739 C3414.95333,439.310739 3464.08223,306.158389 3526.94161,243.381052 C3589.80098,180.603708 3587.75801,559.088083 3587.75801,559.088083 L3440.75801,489.119333 L3414.95333,439.310739 Z M3414.95333,439.310739" id="Path-8" fill="url(#linearGradient-1)" sketch:type="MSShapeGroup" transform="translate(3501.359476, 397.720925) scale(-1, 1) translate(-3501.359476, -397.720925) "></path>
        <path d="M2559.44531,561.390625 L2497.375,213.292969 C2497.375,213.292969 2551.99219,75.8398043 2808.93359,18.6289062 C3065.875,-38.5820312 3290.79297,56.8085938 3290.79297,56.8085938 C3290.79297,56.8085938 3391.98438,103.097663 3443.125,166.570312 C3494.26562,230.042961 3478.27734,211.722656 3478.27734,211.722656 L3411.57031,573.445313 L2992.46094,763.335938 L2559.44531,561.390625 Z M2559.44531,561.390625" id="Path-9" fill="url(#linearGradient-2)" sketch:type="MSShapeGroup"></path>
        <path d="M2720.73828,628.289062 C2720.73828,628.289062 2678.3125,316.005859 2674.47656,247.582031 C2670.64063,179.158203 2670.64063,108.193359 2670.64063,108.193359 C2670.64063,108.193359 2669.91992,92.6367211 2709.89062,78.2929688 C2749.86133,63.9492188 2836.15236,26.8200453 2989.94531,26.8203125 C3143.73827,26.8205795 3291.16797,84.6523438 3291.16797,84.6523438 C3291.16797,84.6523438 3309.71092,88.0859375 3305.32031,122.167969 C3300.9297,156.25 3288.21094,329.207031 3288.21094,329.207031 L3252.08594,628.609375 L2988.875,747.304688 L2720.73828,628.289062 Z M2720.73828,628.289062" id="Path-13" fill="#2B2A28" sketch:type="MSShapeGroup"></path>
        <polygon d="M2986,959.941797 L3105,1299.9418 L2867,1299.9418 L2986,959.941797 Z M2986,959.941797" id="Triangle-1" fill="#BF9D7F" sketch:type="MSShapeGroup" points="2986 959.941797 3105 1299.9418 2867 1299.9418 "></polygon>
        <path d="M2538.15625,1207.71875 C2538.15625,1207.71875 3119.85951,1151.26563 3414.3125,1207.71875 C3708.76562,1264.17187 3536.875,858.953125 3536.875,858.953125 L3587.76562,652.78125 L3558.59375,554.328125 L3032.875,776.0625 L2569.82812,609.71875 L2404.15625,593.0625 L2387.65625,959.71875 L2538.15625,1207.71875 Z M2538.15625,1207.71875" id="Path-2" fill="#000000" sketch:type="MSShapeGroup"></path>
        <path d="M2556.71484,980.664062 C2556.71484,980.664062 2541.8711,801.011724 2645.86719,696.109375 C2749.86328,591.207031 3078.48828,862.570312 3078.48828,862.570312 L3209.39062,1119.73438 C3209.39064,1119.73438 3253.1133,1189.01561 3060.15625,1154.375 C2867.1992,1119.73438 2556.71484,980.664062 2556.71484,980.664062 Z M2556.71484,980.664062" id="Path-15" opacity="0.194460227" fill="url(#linearGradient-3)" sketch:type="MSShapeGroup"></path>
        <path d="M3357.42188,724.351562 C3357.42188,724.351562 3382.51758,707.342773 3412.85156,696.708008 C3443.18555,686.073243 3445.81641,683.762695 3471.89062,678 C3471.89062,677.999999 3485.19531,936.1875 3485.19531,936.1875 L3393.17188,989.078125 L3357.42188,724.351562 Z M3357.42188,724.351562" id="Path-14" opacity="0.332599432" fill="url(#linearGradient-4)" sketch:type="MSShapeGroup"></path>
        <use id="Path-1" xlink:href="#path-5" fill="#B74B4B"></use>
        <use id="Path-16" xlink:href="#path-7" fill="url(#linearGradient-6)"></use>
        <path d="M2695.11719,257.798828 C2695.11719,257.798828 2740.02494,244.811515 2764.10547,239.228516 C2787.65254,233.769197 2838,224.671875 2838,224.671875 L2836.4159,636 L2735.20117,592.048828 L2695.11719,257.798828 Z M2695.11719,257.798828" id="Path-3" fill="url(#linearGradient-8)" sketch:type="MSShapeGroup"></path>
        <path d="M3133,257.798828 C3133,257.798828 3181.28447,244.138397 3204.44141,238.769531 C3228.91208,233.09608 3275.88281,224.671875 3275.88281,224.671875 L3274.29872,636 L3173.08398,592.048828 L3133,257.798828 Z M3133,257.798828" id="Path-3" fill="url(#linearGradient-8)" sketch:type="MSShapeGroup" transform="translate(3204.441406, 430.335938) scale(-1, 1) translate(-3204.441406, -430.335938) "></path>
        <path d="M2851.43792,223.25 C2851.43792,223.25 2896.28934,217.012044 2918.85547,215.212891 C2939.14337,213.595377 2980,213 2980,213 L2978.69468,697 L2851.43792,644.856006 L2851.43792,223.25 Z M2851.43792,223.25" id="Path-4" fill="url(#linearGradient-8)" sketch:type="MSShapeGroup"></path>
        <path d="M2992.43792,224.25 C2992.43792,224.25 3039.91948,218.387478 3061.16684,216.699219 C3082.91948,214.970811 3121.43792,214 3121.43792,214 L3120.12815,698 L2992.43792,645.856006 L2992.43792,224.25 Z M2992.43792,224.25" id="Path-4" fill="url(#linearGradient-8)" sketch:type="MSShapeGroup" transform="translate(3056.937915, 456.000000) scale(-1, 1) translate(-3056.937915, -456.000000) "></path>
        <path d="M2691.39453,204.359375 C2691.96599,227.22101 2694.08398,245.835938 2694.08398,245.835938 C2694.08398,245.835938 2841.71516,201.205177 2988.69922,201.195312 C3132.71217,201.185647 3276.58984,245.835937 3276.58984,245.835938 C3276.58984,245.835938 3280.87062,221.484097 3282.35156,187.505859 C3283.74907,155.441978 3282.35156,113.640625 3282.35156,113.640625 C3282.35156,113.640625 3277.08985,102.386719 3252.42188,94.75 C3227.75391,87.1132812 3115.47266,46.875 2990.00391,46.875 C2864.53516,46.875 2738.9375,87.5976562 2738.9375,87.5976562 L2702.50781,103.058594 C2702.50781,103.058594 2691.39453,103.742187 2691.39453,125.058594 C2691.39453,137.14957 2690.64557,174.396599 2691.39453,204.359375 Z M2691.39453,204.359375" id="Path-7" fill="#FFD640" sketch:type="MSShapeGroup"></path>
        <rect d="M3361.94712,221.375 C3354.76642,221.375 3348.94531,227.201593 3348.94531,234.37528 L3348.94531,451.37472 C3348.94531,458.554576 3354.75882,464.375 3361.94712,464.375 L3426.9435,464.375 C3434.1242,464.375 3439.94531,458.548407 3439.94531,451.37472 L3439.94531,234.37528 C3439.94531,227.195424 3434.1318,221.375 3426.9435,221.375 L3361.94712,221.375 Z M3361.94712,221.375" id="Rectangle-1" opacity="0.0459517045" fill="url(#linearGradient-9)" sketch:type="MSShapeGroup" transform="translate(3394.445312, 342.875000) rotate(-349.000000) translate(-3394.445312, -342.875000) " x="3348.94531" y="221.375" width="91" height="243" rx="13"></rect>
        <path d="M2743.97656,1492.45605 C2743.97656,1492.45605 2835.27783,1401.5332 2999.69434,1407.33398 C3164.11084,1413.13477 3230.59277,1495.87402 3230.59277,1495.87402 C3230.59277,1495.87402 3135.26807,1424.17969 2987.28467,1424.17969 C2839.30127,1424.17969 2743.97656,1492.45605 2743.97656,1492.45605 Z M2743.97656,1492.45605" id="Path-18" fill="#B38E6C" sketch:type="MSShapeGroup"></path>
        <text id="DREDD" fill="#828282" sketch:type="MSTextLayer" font-family="TitilliumText25L" font-size="600" font-weight="633">
            <tspan x="-45" y="1092" fill="#000000">DREDD</tspan>
        </text>
        <text id="No-More-Outdated" fill="#9E9E9E" sketch:type="MSTextLayer" font-family="TitilliumText25L" font-size="288" font-weight="206">
            <tspan x="4199.56208" y="804.567774" fill="#000000">No More Outdated</tspan>
            <tspan x="4199.56208" y="1156.56777" fill="#000000">API Documentation</tspan>
        </text>
        <rect d="M2987,1601 C2974.84974,1601 2965,1610.84115 2965,1622.99218 L2965,1688.00782 C2965,1700.15376 2974.84706,1710 2987,1710 L2987,1710 C2999.15026,1710 3009,1700.15885 3009,1688.00782 L3009,1622.99218 C3009,1610.84624 2999.15294,1601 2987,1601 L2987,1601 Z M2987,1601" id="Rectangle-2" fill="#BF9E7F" sketch:type="MSShapeGroup" x="2965" y="1601" width="44" height="109" rx="38"></rect>
    </g>
</svg>