<?xml version="1.0" encoding="UTF-8" standalone="no"?>
<svg
   xmlns:sketch="http://www.bohemiancoding.com/sketch/ns"
   xmlns:dc="http://purl.org/dc/elements/1.1/"
   xmlns:cc="http://creativecommons.org/ns#"
   xmlns:rdf="http://www.w3.org/1999/02/22-rdf-syntax-ns#"
   xmlns:svg="http://www.w3.org/2000/svg"
   xmlns="http://www.w3.org/2000/svg"
   xmlns:xlink="http://www.w3.org/1999/xlink"
   xmlns:sodipodi="http://sodipodi.sourceforge.net/DTD/sodipodi-0.dtd"
   xmlns:inkscape="http://www.inkscape.org/namespaces/inkscape"
   width="700px"
   height="184px"
   viewBox="0 0 700 184"
   version="1.1"
   id="svg4703"
   inkscape:version="0.91 r13725"
   sodipodi:docname="Dredd.svg">
  <metadata
     id="metadata4971">
    <rdf:RDF>
      <cc:Work
         rdf:about="">
        <dc:format>image/svg+xml</dc:format>
        <dc:type
           rdf:resource="http://purl.org/dc/dcmitype/StillImage" />
      </cc:Work>
    </rdf:RDF>
  </metadata>
  <sodipodi:namedview
     pagecolor="#ffffff"
     bordercolor="#666666"
     borderopacity="1"
     objecttolerance="10"
     gridtolerance="10"
     guidetolerance="10"
     inkscape:pageopacity="0"
     inkscape:pageshadow="2"
     inkscape:window-width="1782"
     inkscape:window-height="1004"
     id="namedview4969"
     showgrid="false"
     inkscape:zoom="1.6632061"
     inkscape:cx="170.76943"
     inkscape:cy="82.499586"
     inkscape:window-x="40"
     inkscape:window-y="28"
     inkscape:window-maximized="0"
     inkscape:current-layer="svg4703"
     showguides="false"
     inkscape:guide-bbox="true">
    <sodipodi:guide
       position="268.26764,39.9638"
       orientation="0,1"
       id="guide4494" />
    <sodipodi:guide
       position="257.21382,65.047462"
       orientation="0,1"
       id="guide4496" />
  </sodipodi:namedview>
  <!-- Generator: Sketch 3.3.2 (12043) - http://www.bohemiancoding.com/sketch -->
  <title
     id="title4705">Artboard</title>
  <desc
     id="desc4707">Created with Sketch.</desc>
  <defs
     id="defs4709">
    <linearGradient
       x1="21.058034"
       y1="26.107711"
       x2="16.006993"
       y2="17.169449"
       id="linearGradient-1"
       gradientTransform="matrix(1.0003806,0,0,0.99961958,4.390905,-2)"
       gradientUnits="userSpaceOnUse">
      <stop
         stop-color="#FB7655"
         offset="0%"
         id="stop4712" />
      <stop
         stop-color="#FB7655"
         offset="0%"
         id="stop4714" />
      <stop
         stop-color="#E42B1E"
         offset="41%"
         id="stop4716" />
      <stop
         stop-color="#990000"
         offset="99%"
         id="stop4718" />
      <stop
         stop-color="#990000"
         offset="100%"
         id="stop4720" />
    </linearGradient>
    <linearGradient
       x1="32.125489"
       y1="13.059886"
       x2="23.246264"
       y2="12.12407"
       id="linearGradient-2"
       gradientTransform="matrix(0.73452893,0,0,1.3614168,4.390905,-2)"
       gradientUnits="userSpaceOnUse">
      <stop
         stop-color="#871101"
         offset="0%"
         id="stop4723" />
      <stop
         stop-color="#871101"
         offset="0%"
         id="stop4725" />
      <stop
         stop-color="#911209"
         offset="99%"
         id="stop4727" />
      <stop
         stop-color="#911209"
         offset="100%"
         id="stop4729" />
    </linearGradient>
    <linearGradient
       x1="4.7401459"
       y1="77.171476"
       x2="4.7097711"
       y2="64.362833"
       id="linearGradient-3"
       gradientTransform="matrix(2.926648,0,0,0.34168783,4.390905,-2)"
       gradientUnits="userSpaceOnUse">
      <stop
         stop-color="#871101"
         offset="0%"
         id="stop4732" />
      <stop
         stop-color="#871101"
         offset="0%"
         id="stop4734" />
      <stop
         stop-color="#911209"
         offset="99%"
         id="stop4736" />
      <stop
         stop-color="#911209"
         offset="100%"
         id="stop4738" />
    </linearGradient>
    <linearGradient
       x1="5.7166206"
       y1="14.398978"
       x2="6.9502581"
       y2="16.828744"
       id="linearGradient-4"
       gradientTransform="matrix(0.81957374,0,0,1.2201465,4.390905,-2)"
       gradientUnits="userSpaceOnUse">
      <stop
         stop-color="#FFFFFF"
         offset="0%"
         id="stop4741" />
      <stop
         stop-color="#FFFFFF"
         offset="0%"
         id="stop4743" />
      <stop
         stop-color="#E57252"
         offset="23%"
         id="stop4745" />
      <stop
         stop-color="#DE3B20"
         offset="46%"
         id="stop4747" />
      <stop
         stop-color="#A60003"
         offset="99%"
         id="stop4749" />
      <stop
         stop-color="#A60003"
         offset="100%"
         id="stop4751" />
    </linearGradient>
    <linearGradient
       x1="11.722245"
       y1="9.3167139"
       x2="12.097425"
       y2="15.789002"
       id="linearGradient-5"
       gradientTransform="matrix(0.99293021,0,0,1.0071201,4.390905,-2)"
       gradientUnits="userSpaceOnUse">
      <stop
         stop-color="#FFFFFF"
         offset="0%"
         id="stop4754" />
      <stop
         stop-color="#FFFFFF"
         offset="0%"
         id="stop4756" />
      <stop
         stop-color="#E4714E"
         offset="23%"
         id="stop4758" />
      <stop
         stop-color="#BE1A0D"
         offset="56%"
         id="stop4760" />
      <stop
         stop-color="#A80D00"
         offset="99%"
         id="stop4762" />
      <stop
         stop-color="#A80D00"
         offset="100%"
         id="stop4764" />
    </linearGradient>
    <linearGradient
       x1="15.435325"
       y1="3.6822714"
       x2="15.899379"
       y2="9.4096531"
       id="linearGradient-6"
       gradientTransform="matrix(1.1916814,0,0,0.83915045,4.390905,-2)"
       gradientUnits="userSpaceOnUse">
      <stop
         stop-color="#FFFFFF"
         offset="0%"
         id="stop4767" />
      <stop
         stop-color="#FFFFFF"
         offset="0%"
         id="stop4769" />
      <stop
         stop-color="#E46342"
         offset="18%"
         id="stop4771" />
      <stop
         stop-color="#C82410"
         offset="40%"
         id="stop4773" />
      <stop
         stop-color="#A80D00"
         offset="99%"
         id="stop4775" />
      <stop
         stop-color="#A80D00"
         offset="100%"
         id="stop4777" />
    </linearGradient>
    <linearGradient
       x1="9.6942271"
       y1="2.3846521"
       x2="10.026307"
       y2="-1.7159"
       id="linearGradient-7"
       gradientTransform="matrix(1.7064943,0,0,0.58599668,4.390905,-2)"
       gradientUnits="userSpaceOnUse">
      <stop
         stop-color="#FFFFFF"
         offset="0%"
         id="stop4780" />
      <stop
         stop-color="#FFFFFF"
         offset="0%"
         id="stop4782" />
      <stop
         stop-color="#C81F11"
         offset="54%"
         id="stop4784" />
      <stop
         stop-color="#BF0905"
         offset="99%"
         id="stop4786" />
      <stop
         stop-color="#BF0905"
         offset="100%"
         id="stop4788" />
    </linearGradient>
    <linearGradient
       x1="0.94477351"
       y1="7.8028286"
       x2="1.7355097"
       y2="7.9268579"
       id="linearGradient-8"
       gradientTransform="matrix(0.50022131,0,0,1.9991152,4.390905,-2)"
       gradientUnits="userSpaceOnUse">
      <stop
         stop-color="#FFFFFF"
         offset="0%"
         id="stop4791" />
      <stop
         stop-color="#FFFFFF"
         offset="0%"
         id="stop4793" />
      <stop
         stop-color="#DE4024"
         offset="31%"
         id="stop4795" />
      <stop
         stop-color="#BF190B"
         offset="99%"
         id="stop4797" />
      <stop
         stop-color="#BF190B"
         offset="100%"
         id="stop4799" />
    </linearGradient>
    <linearGradient
       x1="-2.2151601"
       y1="18.792802"
       x2="16.312521"
       y2="-0.34038093"
       id="linearGradient-9"
       gradientTransform="matrix(1.0007121,0,0,0.99928837,4.390905,-2)"
       gradientUnits="userSpaceOnUse">
      <stop
         stop-color="#BD0012"
         offset="0%"
         id="stop4802" />
      <stop
         stop-color="#BD0012"
         offset="0%"
         id="stop4804" />
      <stop
         stop-color="#FFFFFF"
         offset="7%"
         id="stop4806" />
      <stop
         stop-color="#FFFFFF"
         offset="17%"
         id="stop4808" />
      <stop
         stop-color="#C82F1C"
         offset="27%"
         id="stop4810" />
      <stop
         stop-color="#820C01"
         offset="33%"
         id="stop4812" />
      <stop
         stop-color="#A31601"
         offset="46%"
         id="stop4814" />
      <stop
         stop-color="#B31301"
         offset="72%"
         id="stop4816" />
      <stop
         stop-color="#E82609"
         offset="99%"
         id="stop4818" />
      <stop
         stop-color="#E82609"
         offset="100%"
         id="stop4820" />
    </linearGradient>
    <linearGradient
       x1="10.122807"
       y1="23.651984"
       x2="7.2415006"
       y2="22.073195"
       id="linearGradient-10"
       gradientTransform="matrix(1.1421659,0,0,0.87552952,4.390905,-2)"
       gradientUnits="userSpaceOnUse">
      <stop
         stop-color="#8C0C01"
         offset="0%"
         id="stop4823" />
      <stop
         stop-color="#8C0C01"
         offset="0%"
         id="stop4825" />
      <stop
         stop-color="#990C00"
         offset="54%"
         id="stop4827" />
      <stop
         stop-color="#A80D0E"
         offset="99%"
         id="stop4829" />
      <stop
         stop-color="#A80D0E"
         offset="100%"
         id="stop4831" />
    </linearGradient>
    <linearGradient
       x1="22.909098"
       y1="12.947949"
       x2="17.635867"
       y2="9.6135116"
       id="linearGradient-11"
       gradientTransform="matrix(0.94352013,0,0,1.0598608,4.390905,-2)"
       gradientUnits="userSpaceOnUse">
      <stop
         stop-color="#7E110B"
         offset="0%"
         id="stop4834" />
      <stop
         stop-color="#7E110B"
         offset="0%"
         id="stop4836" />
      <stop
         stop-color="#9E0C00"
         offset="99%"
         id="stop4838" />
      <stop
         stop-color="#9E0C00"
         offset="100%"
         id="stop4840" />
    </linearGradient>
    <linearGradient
       x1="23.748465"
       y1="5.6369402"
       x2="21.237849"
       y2="3.1533999"
       id="linearGradient-12"
       gradientTransform="matrix(0.98714393,0,0,1.0130235,4.390905,-2)"
       gradientUnits="userSpaceOnUse">
      <stop
         stop-color="#79130D"
         offset="0%"
         id="stop4843" />
      <stop
         stop-color="#79130D"
         offset="0%"
         id="stop4845" />
      <stop
         stop-color="#9E120B"
         offset="99%"
         id="stop4847" />
      <stop
         stop-color="#9E120B"
         offset="100%"
         id="stop4849" />
    </linearGradient>
    <radialGradient
       cx="12.588421"
       cy="13.297028"
       fx="12.588421"
       fy="13.297028"
       r="4.4073979"
       id="radialGradient-13"
       gradientTransform="matrix(1.3833774,0,0,0.72286852,4.390905,-2)"
       gradientUnits="userSpaceOnUse">
      <stop
         stop-color="#A80D00"
         offset="0%"
         id="stop4852" />
      <stop
         stop-color="#A80D00"
         offset="0%"
         id="stop4854" />
      <stop
         stop-color="#7E0E08"
         offset="99%"
         id="stop4856" />
      <stop
         stop-color="#7E0E08"
         offset="100%"
         id="stop4858" />
    </radialGradient>
    <radialGradient
       cx="7.9149307"
       cy="20.001079"
       fx="7.9149307"
       fy="20.001079"
       r="7.1512795"
       id="radialGradient-14"
       gradientTransform="matrix(1.1334018,0,0,0.88229961,4.390905,-2)"
       gradientUnits="userSpaceOnUse">
      <stop
         stop-color="#A30C00"
         offset="0%"
         id="stop4861" />
      <stop
         stop-color="#A30C00"
         offset="0%"
         id="stop4863" />
      <stop
         stop-color="#800E08"
         offset="99%"
         id="stop4865" />
      <stop
         stop-color="#800E08"
         offset="100%"
         id="stop4867" />
    </radialGradient>
    <linearGradient
       x1="4.5912846"
       y1="14.705728"
       x2="1.7195776"
       y2="13.526621"
       id="linearGradient-15"
       gradientTransform="matrix(0.70330733,0,0,1.4218535,4.390905,-2)"
       gradientUnits="userSpaceOnUse">
      <stop
         stop-color="#8B2114"
         offset="0%"
         id="stop4870" />
      <stop
         stop-color="#8B2114"
         offset="0%"
         id="stop4872" />
      <stop
         stop-color="#9E100A"
         offset="43%"
         id="stop4874" />
      <stop
         stop-color="#B3100C"
         offset="99%"
         id="stop4876" />
      <stop
         stop-color="#B3100C"
         offset="100%"
         id="stop4878" />
    </linearGradient>
    <linearGradient
       x1="12.851413"
       y1="1.8354665"
       x2="13.362068"
       y2="4.9279539"
       id="linearGradient-16"
       gradientTransform="matrix(1.5472322,0,0,0.64631541,4.390905,-2)"
       gradientUnits="userSpaceOnUse">
      <stop
         stop-color="#B31000"
         offset="0%"
         id="stop4881" />
      <stop
         stop-color="#B31000"
         offset="0%"
         id="stop4883" />
      <stop
         stop-color="#910F08"
         offset="44%"
         id="stop4885" />
      <stop
         stop-color="#791C12"
         offset="99%"
         id="stop4887" />
      <stop
         stop-color="#791C12"
         offset="100%"
         id="stop4889" />
    </linearGradient>
    <linearGradient
       x1="2.6117602"
       y1="2.453587"
       x2="15.971301"
       y2="15.650415"
       id="linearGradient-17"
       gradientTransform="matrix(1.0823542,0,0,-1.0890219,15.190547,28.977153)"
       gradientUnits="userSpaceOnUse">
      <stop
         stop-color="#387EB8"
         offset="0%"
         id="stop4892" />
      <stop
         stop-color="#366994"
         offset="100%"
         id="stop4894" />
    </linearGradient>
    <linearGradient
       x1="10.829973"
       y1="10.938862"
       x2="25.178172"
       y2="24.472463"
       id="linearGradient-18"
       gradientTransform="matrix(1.0823541,0,0,-1.0890219,15.190547,28.977153)"
       gradientUnits="userSpaceOnUse">
      <stop
         stop-color="#FFE052"
         offset="0%"
         id="stop4897" />
      <stop
         stop-color="#FFC331"
         offset="100%"
         id="stop4899" />
    </linearGradient>
    <radialGradient
       cx="77.914261"
       cy="-48.544521"
       r="146"
       fx="77.914261"
       fy="-48.544521"
       id="radialGradient3870"
       xlink:href="#linearGradient3798"
       gradientUnits="userSpaceOnUse"
       gradientTransform="matrix(10.398749,0,0,9.3599883,-1608.5968,-300.31933)" />
    <linearGradient
       x1="150"
       y1="84"
       x2="299"
       y2="84"
       id="linearGradient3798"
       gradientUnits="userSpaceOnUse">
      <stop
         id="stop3800"
         style="stop-color:#dddce9;stop-opacity:1"
         offset="0" />
      <stop
         id="stop3802"
         style="stop-color:#5664a3;stop-opacity:1"
         offset="0.37" />
      <stop
         id="stop3804"
         style="stop-color:#000000;stop-opacity:1"
         offset="1" />
    </linearGradient>
  </defs>
  <g
     style="fill:none;fill-rule:evenodd;stroke:none;stroke-width:1"
     id="dredd1"
     sketch:type="MSLayerGroup"
     transform="translate(275,15)">
    <g
       id="Group-5"
       sketch:type="MSShapeGroup">
      <path
         d="m 105.90358,113.88874 -2.87779,23.58778 0.62844,-2.49404 c 0,0 8.56589,10.21011 9.16511,9.02714 6.9923,-13.80348 3.06536,-38.65232 4.32224,-39.58758 l -11.238,9.4667 0,0 z m 0.89256,-89.886259 C 91.939724,0.46733962 67.134919,0.04035849 61.690489,0.24712264 59.754335,0.09153774 31.92186,-1.6713679 15.823468,23.970896 2.6992803,44.876009 2.9432352,62.256774 2.9432352,62.256774 l 58.0069168,49.525716 0.0012,0.38487 0.225548,-0.19127 0.283689,0.24215 0.0018,-0.48459 58.272491,-49.481263 c 0,0 0.24513,-17.364387 -12.93866,-38.249906 l 0,0 z M 5.5250665,104.46561 c 1.2510356,0.93614 -2.6583777,25.80838 4.3026627,39.62473 0.5965938,1.18414 9.1236198,-9.03562 9.1236198,-9.03562 l 0.625518,2.49637 -2.864644,-23.61 -11.1871565,-9.47548 0,0 z"
         id="Fill-1"
         inkscape:connector-curvature="0"
         style="fill:#0a0b09" />
      <path
         d="m 14.645765,124.98498 c 0,0 47.286634,-14.64633 91.329395,0 4.69153,1.56024 8.52236,-32.004867 8.52236,-32.004867 L 119.42423,64.762509 59.422439,95.564519 1.1964014,61.954377 5.2077791,88.67316 14.645765,124.98498"
         id="Fill-3"
         inkscape:connector-curvature="0"
         style="fill:#0a0b09" />
      <path
         d="m 116.26392,116.34183 c 6.00246,-3.15147 4.09903,-8.08983 4.20771,-8.64315 5.33517,-27.145765 0.10518,-59.194793 0,-58.650246 C 118.47675,59.37933 82.556957,78.802585 61.441276,89.408094 40.369126,78.827736 4.3868052,59.383132 2.391342,49.048434 c -0.1048859,-0.543962 -5.3275653,31.464415 0,58.575666 0.1086841,0.55274 -1.79211872,5.48466 4.201867,8.63233 5.993986,3.14738 6.835703,5.46302 6.972727,11.11029 0.137024,5.64755 0.792634,8.05561 -3.347002,10.27737 -4.1396371,2.22177 -6.1356846,6.11081 -6.1356846,6.11081 l 2.2312375,11.11057 c 0,0 2.6577934,-8.02023 15.3396481,-11.3884 0.130889,-0.0345 -4.633389,-45.328438 -4.633389,-45.328438 0,0 -8.4402543,-14.388387 -7.7449099,-27.565141 0,0 18.3994559,14.633462 40.8579119,24.372141 -2.439256,1.166887 -3.854195,1.822274 -3.854195,1.822274 0,0 5.759965,5.091604 6.144449,5.006204 3.029715,-0.67468 6.060599,-1.52514 9.063143,-2.505733 2.935055,0.952813 5.896112,1.779573 8.856292,2.438763 0.3839,0.0854 6.135976,-4.999772 6.135976,-4.999772 0,0 -1.359135,-0.629651 -3.706069,-1.751793 C 95.21281,85.214613 113.5775,70.610981 113.5775,70.610981 c 0.69622,13.193425 -7.75572,27.600236 -7.75572,27.600236 0,0 -4.771,45.351243 -4.64011,45.386043 C 113.88164,146.96954 116.54323,155 116.54323,155 l 2.23445,-11.12461 c 0,0 -1.99926,-3.89401 -6.14474,-6.1187 -4.14548,-2.2244 -3.4887,-4.63567 -3.35138,-10.29025 0.13702,-5.65457 0.97991,-7.97285 6.98236,-11.12461"
         id="Fill-4"
         inkscape:connector-curvature="0"
         style="fill:#bc3c3e" />
    </g>
    <path
       d="m 41.836069,18.324802 39.929715,0 -2.495644,52.511953 c 0,0 -17.361406,11.189245 -17.469214,11.189245 -0.03506,0 -17.469213,-11.189245 -17.469213,-11.189245 L 41.836069,18.324802"
       id="Fill-6"
       sketch:type="MSShapeGroup"
       inkscape:connector-curvature="0"
       style="fill:#f4b42b" />
    <path
       d="m 42.669606,35.858226 0.07859,1.72284 10.01705,0 0,38.665481 1.721123,1.103425 0,-39.768906 14.629404,0 0,39.768906 1.720832,-1.08617 0,-38.682736 10.013836,0 0.0821,-1.72284 -38.262933,0"
       id="Fill-7"
       sketch:type="MSShapeGroup"
       inkscape:connector-curvature="0"
       style="fill:#af7c31" />
    <path
       d="m 50.149817,23.311707 1.289309,2.662491 2.928043,0.404755 -2.131027,2.050387 0.52034,2.912537 -2.606665,-1.395585 -2.606373,1.395585 0.52034,-2.912537 -2.131318,-2.050387 2.928042,-0.404755 1.289309,-2.662491"
       id="Fill-8"
       sketch:type="MSShapeGroup"
       inkscape:connector-curvature="0"
       style="fill:#ae7d31" />
    <path
       d="m 61.800926,23.311707 1.289309,2.662491 2.928043,0.404755 -2.131026,2.050387 0.520339,2.912537 -2.606665,-1.395585 -2.606373,1.395585 0.52034,-2.912537 -2.131318,-2.050387 2.928043,-0.404755 1.289308,-2.662491"
       id="Fill-9"
       sketch:type="MSShapeGroup"
       inkscape:connector-curvature="0"
       style="fill:#ae7d31" />
    <path
       d="m 73.333126,23.311707 1.289309,2.662491 2.928042,0.404755 -2.131318,2.050387 0.52034,2.912537 -2.606373,-1.395585 -2.606665,1.395585 0.52034,-2.912537 -2.131027,-2.050387 2.928043,-0.404755 1.289309,-2.662491"
       id="Fill-10"
       sketch:type="MSShapeGroup"
       inkscape:connector-curvature="0"
       style="fill:#ae7d31" />
  </g>
  <text
     id="DREDD"
     sketch:type="MSTextLayer"
     font-size="60"
     font-weight="bold"
     line-spacing="60"
     style="font-weight:bold;font-size:60px;font-family:'Proxima Nova';fill:#0b0b0a;fill-rule:evenodd;stroke:none;stroke-width:1">
    <tspan
       x="35"
       y="89"
       id="tspan4914">DREDD</tspan>
  </text>
  <text
     id="No-more-outdated"
     sketch:type="MSTextLayer"
     font-size="28"
     font-weight="206"
     line-spacing="35"
     style="font-size:28px;font-family:TitilliumText25L;fill:#0b0b0a;fill-rule:evenodd;stroke:none;stroke-width:1">
    <tspan
       x="435"
       y="85"
       id="tspan4917">No more outdated</tspan>
    <tspan
       x="435"
       y="121"
       id="tspan4919">API Documentation</tspan>
  </text>
  <g
     style="fill:none;fill-rule:evenodd;stroke:none;stroke-width:1"
     id="Group"
     sketch:type="MSLayerGroup"
     transform="translate(36.609095,120)">
    <path
       d="M 18.585161,15.789517 4.8890476,23.92219 22.622924,22.718816 23.988782,4.8369849 18.585161,15.789517 l 0,0 z"
       id="Shape"
       sketch:type="MSShapeGroup"
       style="fill:url(#linearGradient-1)"
       inkscape:connector-curvature="0" />
    <path
       d="m 22.651982,22.706587 -1.524226,-10.520291 -4.151816,5.48232 5.676042,5.037971 0,0 z"
       id="path4923"
       sketch:type="MSShapeGroup"
       style="fill:url(#linearGradient-2)"
       inkscape:connector-curvature="0" />
    <path
       d="m 22.672565,22.706587 -11.166716,-0.87659 -6.5574742,2.069309 17.7241902,-1.192719 0,0 z"
       id="path4925"
       sketch:type="MSShapeGroup"
       style="fill:url(#linearGradient-3)"
       inkscape:connector-curvature="0" />
    <path
       d="m 4.9641147,23.901607 2.7895903,-9.138814 -6.1385516,1.312584 3.3489613,7.82623 0,0 z"
       id="path4927"
       sketch:type="MSShapeGroup"
       style="fill:url(#linearGradient-4)"
       inkscape:connector-curvature="0" />
    <path
       d="M 16.974851,17.698885 14.40804,7.6447366 7.0623612,14.530327 l 9.9124898,3.168558 0,0 z"
       id="path4929"
       sketch:type="MSShapeGroup"
       style="fill:url(#linearGradient-5)"
       inkscape:connector-curvature="0" />
    <path
       d="m 23.406406,7.7863955 -6.943707,-5.6711983 -1.933583,6.2511522 8.87729,-0.5799539 0,0 z"
       id="path4931"
       sketch:type="MSShapeGroup"
       style="fill:url(#linearGradient-6)"
       inkscape:connector-curvature="0" />
    <path
       d="m 20.159149,0.0932285 -4.083893,2.256856 -2.576496,-2.287125 6.660389,0.030269 0,0 z"
       id="path4933"
       sketch:type="MSShapeGroup"
       style="fill:url(#linearGradient-7)"
       inkscape:connector-curvature="0" />
    <path
       d="M 0,19.1409 1.7108034,16.020772 0.32690511,12.30374 0,19.1409 l 0,0 z"
       id="path4935"
       sketch:type="MSShapeGroup"
       style="fill:url(#linearGradient-8)"
       inkscape:connector-curvature="0" />
    <path
       d="M 0.23488738,12.186296 1.627261,16.135794 7.6774271,14.778412 14.584811,8.3589638 16.534134,2.1672598 13.464737,0 8.2463631,1.9529554 C 6.6022725,3.4821448 3.4119208,6.5078333 3.2968986,6.564739 3.1830872,6.6228555 1.1901768,10.389529 0.23488738,12.186296 l 0,0 0,0 z"
       id="path4937"
       sketch:type="MSShapeGroup"
       inkscape:connector-curvature="0"
       style="fill:#ffffff" />
    <path
       d="M 5.123935,5.0912445 C 8.6872007,1.5582477 13.280823,-0.52910198 15.043689,1.249504 16.805465,3.02811 14.937142,7.350522 11.373876,10.882308 7.8106107,14.414094 3.2738942,16.616466 1.5122388,14.83786 -0.25062725,13.060465 1.5606692,8.6230305 5.123935,5.0912445 l 0,0 0,0 z"
       id="path4939"
       sketch:type="MSShapeGroup"
       style="fill:url(#linearGradient-9)"
       inkscape:connector-curvature="0" />
    <path
       d="m 4.9641147,23.897975 2.7677966,-9.167873 9.1920877,2.953043 c -3.323535,3.116496 -7.0199848,5.751109 -11.9598843,6.21483 l 0,0 0,0 z"
       id="path4941"
       sketch:type="MSShapeGroup"
       style="fill:url(#linearGradient-10)"
       inkscape:connector-curvature="0" />
    <path
       d="m 14.596919,8.3409234 2.35977,9.3470646 c 2.776272,-2.919141 5.268016,-6.05743 6.48834,-9.939126 l -8.84811,0.5920614 0,0 z"
       id="path4943"
       sketch:type="MSShapeGroup"
       style="fill:url(#linearGradient-11)"
       inkscape:connector-curvature="0" />
    <path
       d="m 23.420935,7.7960816 c 0.944393,-2.8501283 1.16233,-6.93886375 -3.290966,-7.69801007 l -3.654072,2.01833637 6.945038,5.6796737 0,0 z"
       id="path4945"
       sketch:type="MSShapeGroup"
       style="fill:url(#linearGradient-12)"
       inkscape:connector-curvature="0" />
    <path
       d="m 0,19.099734 c 0.13076204,4.703922 3.5245214,4.774025 4.9701685,4.815312 L 1.6308933,16.116422 0,19.099734 l 0,0 z"
       id="path4947"
       sketch:type="MSShapeGroup"
       inkscape:connector-curvature="0"
       style="fill:#9e1209" />
    <path
       d="m 14.610116,8.3554526 c 2.133359,1.3112527 6.432887,3.9446554 6.520062,3.9930854 0.135484,0.07628 1.853673,-2.897348 2.243538,-4.5778824 l -8.7636,0.584797 0,0 z"
       id="path4949"
       sketch:type="MSShapeGroup"
       style="fill:url(#radialGradient-13)"
       inkscape:connector-curvature="0" />
    <path
       d="m 7.728279,14.730102 3.700082,7.138639 c 2.187842,-1.186544 3.901067,-2.632191 5.470212,-4.180753 l -9.170294,-2.957886 0,0 z"
       id="path4951"
       sketch:type="MSShapeGroup"
       style="fill:url(#radialGradient-14)"
       inkscape:connector-curvature="0" />
    <path
       d="m 1.6163642,16.126108 -0.524259,6.242677 c 0.9891907,1.351208 2.3500846,1.468652 3.7775702,1.363316 -1.032778,-2.570443 -3.0959125,-7.710118 -3.2533112,-7.605993 l 0,0 0,0 z"
       id="path4953"
       sketch:type="MSShapeGroup"
       style="fill:url(#linearGradient-15)"
       inkscape:connector-curvature="0" />
    <path
       d="m 16.454224,2.1321478 7.350522,1.0315673 C 23.41246,1.501342 22.207754,0.42860893 20.154306,0.0932285 l -3.700082,2.0389193 0,0 z"
       id="path4955"
       sketch:type="MSShapeGroup"
       style="fill:url(#linearGradient-16)"
       inkscape:connector-curvature="0" />
  </g>
  <g
     style="fill:none;fill-rule:evenodd;stroke:none;stroke-width:1"
     id="g4957"
     sketch:type="MSLayerGroup"
     transform="matrix(0.92107924,0,0,-0.92107924,69.008302,143.69026)">
    <path
       d="M 13.385658,0.00765271 C 6.5478779,0.00765319 6.974873,2.9845551 6.974873,2.9845551 l 0.00762,3.0840402 6.525127,0 0,0.9259774 -9.1168831,0 c 0,0 -4.37549408,-0.4981669 -4.37549408,6.4282723 -4.8e-7,6.926438 3.81902878,6.680812 3.81902878,6.680812 l 2.2792208,0 0,-3.214136 c 0,0 -0.1228558,-3.834006 3.7580463,-3.834006 l 6.4717673,0 c 0,0 3.636081,0.05901 3.636081,-3.5278968 l 0,-5.9308467 c 0,-5e-7 0.552058,-3.58911879 -6.593732,-3.58911879 l 0,0 0,0 z M 9.7876906,2.0815358 c 0.6492024,-4e-7 1.1739134,0.5267685 1.1739134,1.1785167 0,0.6517482 -0.524711,1.1785166 -1.1739134,1.1785166 -0.6492024,5e-7 -1.1739131,-0.5267684 -1.1739131,-1.1785166 -5e-7,-0.6517482 0.5247107,-1.1785167 1.1739131,-1.1785167 l 0,0 0,0 z"
       id="path4959"
       sketch:type="MSShapeGroup"
       style="fill:url(#linearGradient-17)"
       inkscape:connector-curvature="0" />
    <path
       d="m 13.57985,26.907487 c 6.837782,0 6.410785,-2.976902 6.410785,-2.976902 l -0.0076,-3.08404 -6.525127,0 0,-0.925978 9.116883,0 c 0,0 4.375494,0.498166 4.375494,-6.428274 2e-6,-6.9264376 -3.819029,-6.6808115 -3.819029,-6.6808115 l -2.279221,0 0,3.2141355 c 0,0 0.122858,3.834005 -3.758046,3.834005 l -6.471768,0 c 0,0 -3.6360814,-0.05901 -3.6360814,3.5279 l 0,5.930847 c 0,0 -0.5520574,3.589118 6.5937324,3.589118 l 0,0 0,0 z m 3.597968,-2.073883 c -0.649203,0 -1.173913,-0.526768 -1.173913,-1.178516 0,-0.651749 0.52471,-1.178517 1.173913,-1.178517 0.649202,0 1.173913,0.526768 1.173913,1.178517 2e-6,0.651748 -0.524711,1.178516 -1.173913,1.178516 l 0,0 0,0 z"
       id="path4961"
       sketch:type="MSShapeGroup"
       style="fill:url(#linearGradient-18)"
       inkscape:connector-curvature="0" />
  </g>
  <g
     style="fill:none;fill-rule:evenodd;stroke:none;stroke-width:1"
     id="g4963"
     sketch:type="MSLayerGroup"
     transform="matrix(1.0451703,0,0,1.0451703,101.97988,117.01141)">
    <path
       d="m 42.927216,0.0606615 c -0.05869,7.195e-4 -0.11806,0.01478295 -0.17044,0.04562815 -0.104585,0.0616429 -0.170442,0.17485131 -0.170442,0.29658873 l 0,8.72652632 c 0,0.085745 -0.03977,0.162365 -0.113626,0.2053669 -0.07404,0.04311 -0.164394,0.04311 -0.238616,0 L 40.813756,8.5134491 c -0.211618,-0.1225044 -0.470096,-0.122431 -0.681761,0 l -5.66998,3.2852869 c -0.211983,0.122761 -0.340882,0.358936 -0.340882,0.604566 l 0,6.570575 c 0,0.245446 0.129081,0.470196 0.340882,0.593176 l 5.66998,3.285287 c 0.211982,0.122797 0.469779,0.122797 0.681761,0 l 5.66998,-3.285287 c 0.211801,-0.12298 0.340882,-0.34773 0.340882,-0.593176 l 0,-16.3808071 c 0,-0.249182 -0.135444,-0.4830284 -0.352244,-0.6045845 L 43.097656,0.09488261 c -0.053,-0.02967672 -0.111747,-0.03486004 -0.17044,-0.03420241 l 0,-1.87e-5 0,0 z M 6.4529907,8.262454 C 6.3448644,8.266824 6.2432801,8.285815 6.1461981,8.342322 l -5.66998166,3.285287 c -0.21127302,0.122614 -0.3408801,0.345941 -0.3408801,0.593178 l 0.0113381,8.817782 c 0,0.122651 0.0630276,0.23654 0.17044149,0.296625 0.10528103,0.06326 0.23595455,0.06326 0.3408801,0 L 4.0213514,19.395926 C 4.2344033,19.268858 4.373594,19.047832 4.373594,18.80275 l 0,-4.117999 c 0,-0.24563 0.1287098,-0.471073 0.3408816,-0.593177 l 1.4316981,-0.832709 c 0.1068563,-0.06202 0.2215748,-0.09126 0.3408801,-0.09126 0.1168571,0 0.2369809,0.0292 0.3408815,0.09126 l 1.4316982,0.832709 c 0.2121646,0.122104 0.3408801,0.347547 0.3408801,0.593177 l 0,4.117999 c 0,0.245082 0.1405811,0.467533 0.352244,0.593176 l 3.3633554,1.939268 c 0.105628,0.06326 0.236118,0.06326 0.34088,0 0.104402,-0.06009 0.17044,-0.173974 0.17044,-0.296625 l 0.01134,-8.817782 c 0,-0.247237 -0.128171,-0.470564 -0.34088,-0.593178 L 6.8279224,8.3423219 C 6.7320215,8.2858149 6.6299871,8.2669063 6.5211298,8.262454 l -0.068176,0 3.72e-5,0 0,0 z M 57.403279,8.342322 C 57.284824,8.3421781 57.168752,8.372255 57.062398,8.43358 l -5.66998,3.285287 c -0.211801,0.122796 -0.34088,0.347547 -0.34088,0.593177 l 0,6.570574 c 0,0.247053 0.138624,0.471074 0.352242,0.593177 l 5.62453,3.216844 c 0.20771,0.119073 0.461325,0.127979 0.670398,0.01131 l 3.408807,-1.905028 c 0.108172,-0.06023 0.181348,-0.172733 0.181802,-0.296589 7.17e-4,-0.123892 -0.06363,-0.234934 -0.170439,-0.296589 l -5.70407,-3.285287 c -0.106809,-0.06114 -0.181802,-0.185034 -0.181802,-0.308013 l 0,-2.053304 c 0,-0.122761 0.0759,-0.235264 0.181802,-0.296553 l 1.77258,-1.026688 c 0.105446,-0.06125 0.23498,-0.06125 0.34088,0 l 1.77258,1.026688 c 0.1059,0.06129 0.17044,0.173792 0.17044,0.296553 l 0,1.619865 c 0,0.122942 0.06454,0.235263 0.17044,0.296552 0.106355,0.06147 0.234981,0.06173 0.340881,0 l 3.397443,-1.984825 c 0.210892,-0.122979 0.34088,-0.348314 0.34088,-0.593176 l 0,-1.585626 c 0,-0.244901 -0.129534,-0.470198 -0.34088,-0.593177 L 57.744159,8.4334646 c -0.106129,-0.061762 -0.222424,-0.091111 -0.34088,-0.091258 l 0,1.151e-4 0,0 z M 40.45015,13.247439 c 0.02956,0 0.06436,0.0073 0.0909,0.02263 l 1.94302,1.129336 c 0.05272,0.03066 0.0909,0.08713 0.0909,0.148275 l 0,2.258635 c 0,0.06133 -0.03781,0.117832 -0.0909,0.148314 l -1.94302,1.129298 c -0.05291,0.0303 -0.117535,0.0303 -0.17044,0 l -1.94302,-1.129298 c -0.05291,-0.03066 -0.0909,-0.08699 -0.0909,-0.148314 l 0,-2.258635 c 0,-0.06114 0.03818,-0.117466 0.0909,-0.148275 l 1.94302,-1.129153 c 0.02654,-0.01533 0.04997,-0.02263 0.07954,-0.02263 l 0,-1.82e-4 0,0 z"
       id="path4965"
       sketch:type="MSShapeGroup"
       inkscape:connector-curvature="0"
       style="fill:#404137" />
    <path
       d="m 74.390496,8.1826205 c -0.196576,0 -0.387694,0.04081 -0.556771,0.1368874 l -5.351827,3.1027701 c -0.346334,0.200184 -0.556771,0.578576 -0.556771,0.981024 l 0,6.194153 c 0,0.402229 0.210437,0.780182 0.556771,0.980988 l 1.397611,0.809932 c 0.679034,0.335975 0.929469,0.330791 1.238533,0.330791 1.005371,0 1.579414,-0.612414 1.579414,-1.676847 l 0,-6.114283 c 0,-0.08644 -0.07454,-0.148313 -0.159078,-0.148313 l -0.670398,0 c -0.0859,0 -0.159079,0.06187 -0.159079,0.148313 l 0,6.114283 c 0,0.471804 -0.489504,0.946273 -1.283983,0.547548 l -1.454423,-0.855525 c -0.05136,-0.02811 -0.0909,-0.07772 -0.0909,-0.136887 l 0,-6.194153 c 0,-0.05881 0.03909,-0.118525 0.0909,-0.148275 l 5.340462,-3.0913825 c 0.05,-0.028838 0.109536,-0.028838 0.159078,0 l 5.340463,3.0913825 c 0.05091,0.03066 0.0909,0.08768 0.0909,0.148275 l 0,6.194153 c 0,0.05917 -0.02956,0.119767 -0.07954,0.148277 l -5.351825,3.091382 c -0.04591,0.02738 -0.109082,0.02738 -0.159078,0 L 72.93607,21.015791 c -0.04091,-0.02409 -0.09681,-0.02227 -0.136353,0 -0.379512,0.21599 -0.450871,0.241104 -0.80675,0.365033 -0.08772,0.03066 -0.220891,0.07837 0.04545,0.228145 l 1.795305,1.060856 c 0.170895,0.09929 0.361333,0.148275 0.556771,0.148275 0.198165,0 0.385877,-0.04899 0.556772,-0.148275 l 5.351825,-3.091382 c 0.346335,-0.202229 0.556771,-0.578759 0.556771,-0.980988 l 0,-6.194153 c 0,-0.402448 -0.210436,-0.78 -0.556771,-0.981024 L 74.947268,8.3195079 C 74.779554,8.2234309 74.587073,8.1826205 74.390496,8.1826205 l 0,0 0,0 z M 23.485658,8.3080821 c -0.11815,0 -0.23507,0.029933 -0.34088,0.091258 l -5.669981,3.2738989 c -0.211982,0.12265 -0.340881,0.359154 -0.340881,0.604566 l 0,6.570573 c 0,0.245704 0.129036,0.470271 0.340881,0.593177 l 5.669981,3.285287 c 0.211982,0.122906 0.469779,0.122906 0.681761,0 l 5.66998,-3.285287 c 0.211619,-0.122906 0.340882,-0.347473 0.340882,-0.593177 l 0,-6.570573 c 0,-0.245776 -0.128899,-0.481916 -0.340882,-0.604566 l -5.66998,-3.2738989 c -0.10581,-0.061325 -0.222731,-0.091258 -0.340881,-0.091258 l 0,0 0,0 z m 58.847356,0.034313 0,0.1597014 0.443145,0 0,1.1749278 0.181803,0 0,-1.1749278 0.454508,0 0,-0.1597014 -1.079456,0 0,0 z m 1.238533,0 0,1.3346292 0.17044,0 0,-0.7870813 c 0,-0.032123 0.0014,-0.081803 0,-0.1482757 -0.0022,-0.067714 0,-0.1267394 0,-0.1597388 l 0,-0.034312 0.374969,1.1292981 0.181803,0 0.386331,-1.1292981 c 0,0.071838 -0.0096,0.1411942 -0.01134,0.2053295 -7.17e-4,0.06242 0,0.1092914 0,0.1368873 l 0,0.7870813 0.17044,0 0,-1.3346291 -0.249979,0 -0.386331,1.1293355 -0.374969,-1.1293355 -0.261342,0 -2.4e-5,1.093e-4 0,0 z m -7.749353,4.2663099 c -1.523964,0 -2.431615,0.651108 -2.431615,1.733902 0,1.174637 0.900835,1.497361 2.363439,1.642643 1.749855,0.171968 1.886206,0.429899 1.886206,0.775693 0,0.599784 -0.476324,0.855525 -1.602138,0.855525 -1.414427,0 -1.725311,-0.354482 -1.829394,-1.060855 -0.01225,-0.07575 -0.07045,-0.136887 -0.147713,-0.136887 l -0.693124,0 c -0.08545,0 -0.159078,0.07377 -0.159078,0.159702 0,0.904183 0.489958,1.973472 2.829309,1.973472 1.693495,0 2.670231,-0.667352 2.670231,-1.836585 0,-1.159123 -0.789025,-1.47024 -2.431615,-1.688273 -1.659862,-0.22048 -1.818029,-0.328382 -1.818029,-0.718638 0,-0.322141 0.134079,-0.752915 1.363521,-0.752915 1.09809,0 1.503966,0.237745 1.670315,0.98106 0.01454,0.06987 0.0759,0.12546 0.147715,0.12546 l 0.693124,0 c 0.04272,0 0.08408,-0.02628 0.113628,-0.05705 0.02909,-0.03285 0.04954,-0.06987 0.04545,-0.114035 -0.107263,-1.280131 -0.957648,-1.882215 -2.670232,-1.882215 l 0,0 0,0 z m -18.430277,1.562812 c -0.02265,0 -0.04772,0 -0.06818,0.01131 l -1.090819,0.638806 c -0.04091,0.02336 -0.06818,0.06684 -0.06818,0.114072 l 0,1.254797 c 0,0.04724 0.02727,0.09053 0.06818,0.114073 l 1.090819,0.62738 c 0.0409,0.02373 0.08454,0.02373 0.124988,0 l 1.090818,-0.62738 c 0.04045,-0.02336 0.06818,-0.06684 0.06818,-0.114073 l 0,-1.254797 c 0,-0.04724 -0.0277,-0.09056 -0.06818,-0.114072 l -1.090818,-0.638806 c -0.02022,-0.01204 -0.03414,-0.01131 -0.05681,-0.01131 l 0,0 0,0 z"
       id="path4967"
       sketch:type="MSShapeGroup"
       inkscape:connector-curvature="0"
       style="fill:#83cd29" />
  </g>
  <g
     transform="matrix(0.14420184,0,0,0.14420184,194.11542,119.78336)"
     id="g5168">
    <ellipse
       style="fill:#6c7eb7;stroke:url(#radialGradient3870);stroke-width:5.5"
       id="ellipse3860"
       ry="76"
       rx="146"
       cy="80"
       cx="150" />
    <path
       inkscape:connector-curvature="0"
       style="fill-rule:evenodd;stroke:#ffffff;stroke-width:2;stroke-linejoin:round"
       id="p"
       d="m 45,125 16,-81 37,0 c 16,1 24,9 24,23 0,24 -19,38 -36,37 l -18,0 -4,21 -19,0 z m 27,-36 5,-30 13,0 c 7,0 12,3 12,9 -1,17 -9,20 -18,21 l -12,0 z" />
    <path
       inkscape:connector-curvature="0"
       style="stroke:#ffffff;stroke-width:2;stroke-linejoin:round"
       id="h"
       d="m 116,104 16,-81 19,0 -4,21 18,0 c 16,1 22,9 20,19 l -7,41 -20,0 7,-37 c 1,-5 1,-8 -6,-8 l -15,0 -9,45 -19,0 z" />
    <use
       height="100%"
       width="100%"
       y="0"
       x="0"
       xlink:href="#p"
       id="p2"
       transform="translate(134,0)" />
  </g>
</svg>
