<?xml version="1.0" encoding="UTF-8" standalone="no"?>
<svg
   xmlns:sketch="http://www.bohemiancoding.com/sketch/ns"
   xmlns:dc="http://purl.org/dc/elements/1.1/"
   xmlns:cc="http://creativecommons.org/ns#"
   xmlns:rdf="http://www.w3.org/1999/02/22-rdf-syntax-ns#"
   xmlns:svg="http://www.w3.org/2000/svg"
   xmlns="http://www.w3.org/2000/svg"
   xmlns:xlink="http://www.w3.org/1999/xlink"
   xmlns:sodipodi="http://sodipodi.sourceforge.net/DTD/sodipodi-0.dtd"
   xmlns:inkscape="http://www.inkscape.org/namespaces/inkscape"
   width="700px"
   height="184px"
   viewBox="0 0 700 184"
   version="1.1"
   id="svg4703"
   inkscape:version="0.91 r13725"
   sodipodi:docname="Dredd.svg"
   inkscape:export-filename="/Users/netmilk/projects/dredd/img/Dredd.png"
   inkscape:export-xdpi="90"
   inkscape:export-ydpi="90">
  <metadata
     id="metadata4971">
    <rdf:RDF>
      <cc:Work
         rdf:about="">
        <dc:format>image/svg+xml</dc:format>
        <dc:type
           rdf:resource="http://purl.org/dc/dcmitype/StillImage" />
      </cc:Work>
    </rdf:RDF>
  </metadata>
  <sodipodi:namedview
     pagecolor="#ffffff"
     bordercolor="#666666"
     borderopacity="1"
     objecttolerance="10"
     gridtolerance="10"
     guidetolerance="10"
     inkscape:pageopacity="0"
     inkscape:pageshadow="2"
     inkscape:window-width="1782"
     inkscape:window-height="1004"
     id="namedview4969"
     showgrid="false"
     inkscape:zoom="1.1743077"
     inkscape:cx="277.09478"
     inkscape:cy="105.40932"
     inkscape:window-x="78"
     inkscape:window-y="11"
     inkscape:window-maximized="0"
     inkscape:current-layer="svg4703"
     showguides="false"
     inkscape:guide-bbox="true">
    <sodipodi:guide
       position="423.22809,176.27407"
       orientation="0,1"
       id="guide5602" />
    <sodipodi:guide
       position="498.16586,7.6640902"
       orientation="0,1"
       id="guide5604" />
    <sodipodi:guide
       position="483.68925,156.68807"
       orientation="0,1"
       id="guide5627" />
  </sodipodi:namedview>
  <!-- Generator: Sketch 3.3.2 (12043) - http://www.bohemiancoding.com/sketch -->
  <title
     id="title4705">Artboard</title>
  <desc
     id="desc4707">Created with Sketch.</desc>
  <defs
     id="defs4709">
    <linearGradient
       x1="21.058034"
       y1="26.107711"
       x2="16.006993"
       y2="17.169449"
       id="linearGradient-1"
       gradientTransform="matrix(0.869607,0,0,0.86894548,26.159245,95.907653)"
       gradientUnits="userSpaceOnUse">
      <stop
         stop-color="#FB7655"
         offset="0%"
         id="stop4712" />
      <stop
         stop-color="#FB7655"
         offset="0%"
         id="stop4714" />
      <stop
         stop-color="#E42B1E"
         offset="41%"
         id="stop4716" />
      <stop
         stop-color="#990000"
         offset="99%"
         id="stop4718" />
      <stop
         stop-color="#990000"
         offset="100%"
         id="stop4720" />
    </linearGradient>
    <linearGradient
       x1="32.125489"
       y1="13.059886"
       x2="23.246264"
       y2="12.12407"
       id="linearGradient-2"
       gradientTransform="matrix(0.6385085,0,0,1.1834472,26.159245,95.907653)"
       gradientUnits="userSpaceOnUse">
      <stop
         stop-color="#871101"
         offset="0%"
         id="stop4723" />
      <stop
         stop-color="#871101"
         offset="0%"
         id="stop4725" />
      <stop
         stop-color="#911209"
         offset="99%"
         id="stop4727" />
      <stop
         stop-color="#911209"
         offset="100%"
         id="stop4729" />
    </linearGradient>
    <linearGradient
       x1="4.7401459"
       y1="77.171476"
       x2="4.7097711"
       y2="64.362833"
       id="linearGradient-3"
       gradientTransform="matrix(2.5440653,0,0,0.29702109,26.159245,95.907653)"
       gradientUnits="userSpaceOnUse">
      <stop
         stop-color="#871101"
         offset="0%"
         id="stop4732" />
      <stop
         stop-color="#871101"
         offset="0%"
         id="stop4734" />
      <stop
         stop-color="#911209"
         offset="99%"
         id="stop4736" />
      <stop
         stop-color="#911209"
         offset="100%"
         id="stop4738" />
    </linearGradient>
    <linearGradient
       x1="5.7166206"
       y1="14.398978"
       x2="6.9502581"
       y2="16.828744"
       id="linearGradient-4"
       gradientTransform="matrix(0.71243591,0,0,1.0606443,26.159245,95.907653)"
       gradientUnits="userSpaceOnUse">
      <stop
         stop-color="#FFFFFF"
         offset="0%"
         id="stop4741" />
      <stop
         stop-color="#FFFFFF"
         offset="0%"
         id="stop4743" />
      <stop
         stop-color="#E57252"
         offset="23%"
         id="stop4745" />
      <stop
         stop-color="#DE3B20"
         offset="46%"
         id="stop4747" />
      <stop
         stop-color="#A60003"
         offset="99%"
         id="stop4749" />
      <stop
         stop-color="#A60003"
         offset="100%"
         id="stop4751" />
    </linearGradient>
    <linearGradient
       x1="11.722245"
       y1="9.3167139"
       x2="12.097425"
       y2="15.789002"
       id="linearGradient-5"
       gradientTransform="matrix(0.86313057,0,0,0.8754655,26.159245,95.907653)"
       gradientUnits="userSpaceOnUse">
      <stop
         stop-color="#FFFFFF"
         offset="0%"
         id="stop4754" />
      <stop
         stop-color="#FFFFFF"
         offset="0%"
         id="stop4756" />
      <stop
         stop-color="#E4714E"
         offset="23%"
         id="stop4758" />
      <stop
         stop-color="#BE1A0D"
         offset="56%"
         id="stop4760" />
      <stop
         stop-color="#A80D00"
         offset="99%"
         id="stop4762" />
      <stop
         stop-color="#A80D00"
         offset="100%"
         id="stop4764" />
    </linearGradient>
    <linearGradient
       x1="15.435325"
       y1="3.6822714"
       x2="15.899379"
       y2="9.4096531"
       id="linearGradient-6"
       gradientTransform="matrix(1.0359002,0,0,0.72945349,26.159245,95.907653)"
       gradientUnits="userSpaceOnUse">
      <stop
         stop-color="#FFFFFF"
         offset="0%"
         id="stop4767" />
      <stop
         stop-color="#FFFFFF"
         offset="0%"
         id="stop4769" />
      <stop
         stop-color="#E46342"
         offset="18%"
         id="stop4771" />
      <stop
         stop-color="#C82410"
         offset="40%"
         id="stop4773" />
      <stop
         stop-color="#A80D00"
         offset="99%"
         id="stop4775" />
      <stop
         stop-color="#A80D00"
         offset="100%"
         id="stop4777" />
    </linearGradient>
    <linearGradient
       x1="9.6942271"
       y1="2.3846521"
       x2="10.026307"
       y2="-1.7159"
       id="linearGradient-7"
       gradientTransform="matrix(1.4834149,0,0,0.50939296,26.159245,95.907653)"
       gradientUnits="userSpaceOnUse">
      <stop
         stop-color="#FFFFFF"
         offset="0%"
         id="stop4780" />
      <stop
         stop-color="#FFFFFF"
         offset="0%"
         id="stop4782" />
      <stop
         stop-color="#C81F11"
         offset="54%"
         id="stop4784" />
      <stop
         stop-color="#BF0905"
         offset="99%"
         id="stop4786" />
      <stop
         stop-color="#BF0905"
         offset="100%"
         id="stop4788" />
    </linearGradient>
    <linearGradient
       x1="0.94477351"
       y1="7.8028286"
       x2="1.7355097"
       y2="7.9268579"
       id="linearGradient-8"
       gradientTransform="matrix(0.43483045,0,0,1.7377831,26.159245,95.907653)"
       gradientUnits="userSpaceOnUse">
      <stop
         stop-color="#FFFFFF"
         offset="0%"
         id="stop4791" />
      <stop
         stop-color="#FFFFFF"
         offset="0%"
         id="stop4793" />
      <stop
         stop-color="#DE4024"
         offset="31%"
         id="stop4795" />
      <stop
         stop-color="#BF190B"
         offset="99%"
         id="stop4797" />
      <stop
         stop-color="#BF190B"
         offset="100%"
         id="stop4799" />
    </linearGradient>
    <linearGradient
       x1="-2.2151601"
       y1="18.792802"
       x2="16.312521"
       y2="-0.34038093"
       id="linearGradient-9"
       gradientTransform="matrix(0.86989517,0,0,0.86865756,26.159245,95.907653)"
       gradientUnits="userSpaceOnUse">
      <stop
         stop-color="#BD0012"
         offset="0%"
         id="stop4802" />
      <stop
         stop-color="#BD0012"
         offset="0%"
         id="stop4804" />
      <stop
         stop-color="#FFFFFF"
         offset="7%"
         id="stop4806" />
      <stop
         stop-color="#FFFFFF"
         offset="17%"
         id="stop4808" />
      <stop
         stop-color="#C82F1C"
         offset="27%"
         id="stop4810" />
      <stop
         stop-color="#820C01"
         offset="33%"
         id="stop4812" />
      <stop
         stop-color="#A31601"
         offset="46%"
         id="stop4814" />
      <stop
         stop-color="#B31301"
         offset="72%"
         id="stop4816" />
      <stop
         stop-color="#E82609"
         offset="99%"
         id="stop4818" />
      <stop
         stop-color="#E82609"
         offset="100%"
         id="stop4820" />
    </linearGradient>
    <linearGradient
       x1="10.122807"
       y1="23.651984"
       x2="7.2415006"
       y2="22.073195"
       id="linearGradient-10"
       gradientTransform="matrix(0.99285759,0,0,0.76107694,26.159245,95.907653)"
       gradientUnits="userSpaceOnUse">
      <stop
         stop-color="#8C0C01"
         offset="0%"
         id="stop4823" />
      <stop
         stop-color="#8C0C01"
         offset="0%"
         id="stop4825" />
      <stop
         stop-color="#990C00"
         offset="54%"
         id="stop4827" />
      <stop
         stop-color="#A80D0E"
         offset="99%"
         id="stop4829" />
      <stop
         stop-color="#A80D0E"
         offset="100%"
         id="stop4831" />
    </linearGradient>
    <linearGradient
       x1="22.909098"
       y1="12.947949"
       x2="17.635867"
       y2="9.6135116"
       id="linearGradient-11"
       gradientTransform="matrix(0.82017956,0,0,0.92131174,26.159245,95.907653)"
       gradientUnits="userSpaceOnUse">
      <stop
         stop-color="#7E110B"
         offset="0%"
         id="stop4834" />
      <stop
         stop-color="#7E110B"
         offset="0%"
         id="stop4836" />
      <stop
         stop-color="#9E0C00"
         offset="99%"
         id="stop4838" />
      <stop
         stop-color="#9E0C00"
         offset="100%"
         id="stop4840" />
    </linearGradient>
    <linearGradient
       x1="23.748465"
       y1="5.6369402"
       x2="21.237849"
       y2="3.1533999"
       id="linearGradient-12"
       gradientTransform="matrix(0.8581007,0,0,0.88059719,26.159245,95.907653)"
       gradientUnits="userSpaceOnUse">
      <stop
         stop-color="#79130D"
         offset="0%"
         id="stop4843" />
      <stop
         stop-color="#79130D"
         offset="0%"
         id="stop4845" />
      <stop
         stop-color="#9E120B"
         offset="99%"
         id="stop4847" />
      <stop
         stop-color="#9E120B"
         offset="100%"
         id="stop4849" />
    </linearGradient>
    <radialGradient
       cx="12.588421"
       cy="13.297028"
       fx="12.588421"
       fy="13.297028"
       r="4.4073979"
       id="radialGradient-13"
       gradientTransform="matrix(1.202537,0,0,0.62837237,26.159245,95.907653)"
       gradientUnits="userSpaceOnUse">
      <stop
         stop-color="#A80D00"
         offset="0%"
         id="stop4852" />
      <stop
         stop-color="#A80D00"
         offset="0%"
         id="stop4854" />
      <stop
         stop-color="#7E0E08"
         offset="99%"
         id="stop4856" />
      <stop
         stop-color="#7E0E08"
         offset="100%"
         id="stop4858" />
    </radialGradient>
    <radialGradient
       cx="7.9149307"
       cy="20.001079"
       fx="7.9149307"
       fy="20.001079"
       r="7.1512795"
       id="radialGradient-14"
       gradientTransform="matrix(0.98523917,0,0,0.76696201,26.159245,95.907653)"
       gradientUnits="userSpaceOnUse">
      <stop
         stop-color="#A30C00"
         offset="0%"
         id="stop4861" />
      <stop
         stop-color="#A30C00"
         offset="0%"
         id="stop4863" />
      <stop
         stop-color="#800E08"
         offset="99%"
         id="stop4865" />
      <stop
         stop-color="#800E08"
         offset="100%"
         id="stop4867" />
    </radialGradient>
    <linearGradient
       x1="4.5912846"
       y1="14.705728"
       x2="1.7195776"
       y2="13.526621"
       id="linearGradient-15"
       gradientTransform="matrix(0.6113683,0,0,1.2359834,26.159245,95.907653)"
       gradientUnits="userSpaceOnUse">
      <stop
         stop-color="#8B2114"
         offset="0%"
         id="stop4870" />
      <stop
         stop-color="#8B2114"
         offset="0%"
         id="stop4872" />
      <stop
         stop-color="#9E100A"
         offset="43%"
         id="stop4874" />
      <stop
         stop-color="#B3100C"
         offset="99%"
         id="stop4876" />
      <stop
         stop-color="#B3100C"
         offset="100%"
         id="stop4878" />
    </linearGradient>
    <linearGradient
       x1="12.851413"
       y1="1.8354665"
       x2="13.362068"
       y2="4.9279539"
       id="linearGradient-16"
       gradientTransform="matrix(1.344972,0,0,0.56182658,26.159245,95.907653)"
       gradientUnits="userSpaceOnUse">
      <stop
         stop-color="#B31000"
         offset="0%"
         id="stop4881" />
      <stop
         stop-color="#B31000"
         offset="0%"
         id="stop4883" />
      <stop
         stop-color="#910F08"
         offset="44%"
         id="stop4885" />
      <stop
         stop-color="#791C12"
         offset="99%"
         id="stop4887" />
      <stop
         stop-color="#791C12"
         offset="100%"
         id="stop4889" />
    </linearGradient>
    <linearGradient
       x1="2.6117602"
       y1="2.453587"
       x2="15.971301"
       y2="15.650415"
       id="linearGradient-17"
       gradientTransform="matrix(0.87121666,0,0,-0.87658367,64.426651,-39.615899)"
       gradientUnits="userSpaceOnUse">
      <stop
         stop-color="#387EB8"
         offset="0%"
         id="stop4892" />
      <stop
         stop-color="#366994"
         offset="100%"
         id="stop4894" />
    </linearGradient>
    <linearGradient
       x1="10.829973"
       y1="10.938862"
       x2="25.178172"
       y2="24.472463"
       id="linearGradient-18"
       gradientTransform="matrix(0.87121658,0,0,-0.87658367,64.426651,-39.615899)"
       gradientUnits="userSpaceOnUse">
      <stop
         stop-color="#FFE052"
         offset="0%"
         id="stop4897" />
      <stop
         stop-color="#FFC331"
         offset="100%"
         id="stop4899" />
    </linearGradient>
    <radialGradient
       cx="77.914261"
       cy="-48.544521"
       r="146"
       fx="77.914261"
       fy="-48.544521"
       id="radialGradient3870"
       xlink:href="#linearGradient3798"
       gradientUnits="userSpaceOnUse"
       gradientTransform="matrix(12.937169,0,0,11.644838,-389.66484,-362.20779)" />
    <linearGradient
       x1="150"
       y1="84"
       x2="299"
       y2="84"
       id="linearGradient3798"
       gradientUnits="userSpaceOnUse">
      <stop
         id="stop3800"
         style="stop-color:#dddce9;stop-opacity:1"
         offset="0" />
      <stop
         id="stop3802"
         style="stop-color:#5664a3;stop-opacity:1"
         offset="0.37" />
      <stop
         id="stop3804"
         style="stop-color:#000000;stop-opacity:1"
         offset="1" />
    </linearGradient>
  </defs>
  <g
     style="fill:none;fill-rule:evenodd;stroke:none;stroke-width:1"
     id="dredd1"
     sketch:type="MSLayerGroup"
     transform="matrix(1.1006527,0,0,1.1006527,190.85813,7.319154)">
    <g
       id="Group-5"
       sketch:type="MSShapeGroup">
      <path
         d="m 105.90358,113.88874 -2.87779,23.58778 0.62844,-2.49404 c 0,0 8.56589,10.21011 9.16511,9.02714 6.9923,-13.80348 3.06536,-38.65232 4.32224,-39.58758 l -11.238,9.4667 0,0 z m 0.89256,-89.886259 C 91.939724,0.46733962 67.134919,0.04035849 61.690489,0.24712264 59.754335,0.09153774 31.92186,-1.6713679 15.823468,23.970896 2.6992803,44.876009 2.9432352,62.256774 2.9432352,62.256774 l 58.0069168,49.525716 0.0012,0.38487 0.225548,-0.19127 0.283689,0.24215 0.0018,-0.48459 58.272491,-49.481263 c 0,0 0.24513,-17.364387 -12.93866,-38.249906 l 0,0 z M 5.5250665,104.46561 c 1.2510356,0.93614 -2.6583777,25.80838 4.3026627,39.62473 0.5965938,1.18414 9.1236198,-9.03562 9.1236198,-9.03562 l 0.625518,2.49637 -2.864644,-23.61 -11.1871565,-9.47548 0,0 z"
         id="Fill-1"
         inkscape:connector-curvature="0"
         style="fill:#0a0b09" />
      <path
         d="m 14.645765,124.98498 c 0,0 47.286634,-14.64633 91.329395,0 4.69153,1.56024 8.52236,-32.004867 8.52236,-32.004867 L 119.42423,64.762509 59.422439,95.564519 1.1964014,61.954377 5.2077791,88.67316 14.645765,124.98498"
         id="Fill-3"
         inkscape:connector-curvature="0"
         style="fill:#0a0b09" />
      <path
         d="m 116.26392,116.34183 c 6.00246,-3.15147 4.09903,-8.08983 4.20771,-8.64315 5.33517,-27.145765 0.10518,-59.194793 0,-58.650246 C 118.47675,59.37933 82.556957,78.802585 61.441276,89.408094 40.369126,78.827736 4.3868052,59.383132 2.391342,49.048434 c -0.1048859,-0.543962 -5.3275653,31.464415 0,58.575666 0.1086841,0.55274 -1.79211872,5.48466 4.201867,8.63233 5.993986,3.14738 6.835703,5.46302 6.972727,11.11029 0.137024,5.64755 0.792634,8.05561 -3.347002,10.27737 -4.1396371,2.22177 -6.1356846,6.11081 -6.1356846,6.11081 l 2.2312375,11.11057 c 0,0 2.6577934,-8.02023 15.3396481,-11.3884 0.130889,-0.0345 -4.633389,-45.328438 -4.633389,-45.328438 0,0 -8.4402543,-14.388387 -7.7449099,-27.565141 0,0 18.3994559,14.633462 40.8579119,24.372141 -2.439256,1.166887 -3.854195,1.822274 -3.854195,1.822274 0,0 5.759965,5.091604 6.144449,5.006204 3.029715,-0.67468 6.060599,-1.52514 9.063143,-2.505733 2.935055,0.952813 5.896112,1.779573 8.856292,2.438763 0.3839,0.0854 6.135976,-4.999772 6.135976,-4.999772 0,0 -1.359135,-0.629651 -3.706069,-1.751793 C 95.21281,85.214613 113.5775,70.610981 113.5775,70.610981 c 0.69622,13.193425 -7.75572,27.600236 -7.75572,27.600236 0,0 -4.771,45.351243 -4.64011,45.386043 C 113.88164,146.96954 116.54323,155 116.54323,155 l 2.23445,-11.12461 c 0,0 -1.99926,-3.89401 -6.14474,-6.1187 -4.14548,-2.2244 -3.4887,-4.63567 -3.35138,-10.29025 0.13702,-5.65457 0.97991,-7.97285 6.98236,-11.12461"
         id="Fill-4"
         inkscape:connector-curvature="0"
         style="fill:#bc3c3e" />
    </g>
    <path
       d="m 41.836069,18.324802 39.929715,0 -2.495644,52.511953 c 0,0 -17.361406,11.189245 -17.469214,11.189245 -0.03506,0 -17.469213,-11.189245 -17.469213,-11.189245 L 41.836069,18.324802"
       id="Fill-6"
       sketch:type="MSShapeGroup"
       inkscape:connector-curvature="0"
       style="fill:#f4b42b" />
    <path
       d="m 42.669606,35.858226 0.07859,1.72284 10.01705,0 0,38.665481 1.721123,1.103425 0,-39.768906 14.629404,0 0,39.768906 1.720832,-1.08617 0,-38.682736 10.013836,0 0.0821,-1.72284 -38.262933,0"
       id="Fill-7"
       sketch:type="MSShapeGroup"
       inkscape:connector-curvature="0"
       style="fill:#af7c31" />
    <path
       d="m 50.149817,23.311707 1.289309,2.662491 2.928043,0.404755 -2.131027,2.050387 0.52034,2.912537 -2.606665,-1.395585 -2.606373,1.395585 0.52034,-2.912537 -2.131318,-2.050387 2.928042,-0.404755 1.289309,-2.662491"
       id="Fill-8"
       sketch:type="MSShapeGroup"
       inkscape:connector-curvature="0"
       style="fill:#ae7d31" />
    <path
       d="m 61.800926,23.311707 1.289309,2.662491 2.928043,0.404755 -2.131026,2.050387 0.520339,2.912537 -2.606665,-1.395585 -2.606373,1.395585 0.52034,-2.912537 -2.131318,-2.050387 2.928043,-0.404755 1.289308,-2.662491"
       id="Fill-9"
       sketch:type="MSShapeGroup"
       inkscape:connector-curvature="0"
       style="fill:#ae7d31" />
    <path
       d="m 73.333126,23.311707 1.289309,2.662491 2.928042,0.404755 -2.131318,2.050387 0.52034,2.912537 -2.606373,-1.395585 -2.606665,1.395585 0.52034,-2.912537 -2.131027,-2.050387 2.928043,-0.404755 1.289309,-2.662491"
       id="Fill-10"
       sketch:type="MSShapeGroup"
       inkscape:connector-curvature="0"
       style="fill:#ae7d31" />
  </g>
  <text
     id="DREDD"
     sketch:type="MSTextLayer"
     font-size="60"
     font-weight="bold"
     line-spacing="60"
     style="font-weight:bold;font-size:60px;font-family:'Proxima Nova';fill:#0b0b0a;fill-rule:evenodd;stroke:none;stroke-width:1"
     x="437.28311"
     y="-27.185923">
    <tspan
       x="472.28308"
       y="61.814064"
       id="tspan4914">DREDD</tspan>
  </text>
  <text
     id="No-more-outdated"
     sketch:type="MSTextLayer"
     font-size="28"
     font-weight="206"
     line-spacing="35"
     style="font-size:28px;font-family:TitilliumText25L;text-align:center;text-anchor:middle;fill:#0b0b0a;fill-rule:evenodd;stroke:none;stroke-width:1"
     y="37.153786"
     x="261.80066">
    <tspan
       x="573.46332"
       y="122.15379"
       id="tspan4917"
       style="text-align:center;text-anchor:middle">No more outdated</tspan>
    <tspan
       x="573.46332"
       y="158.15376"
       id="tspan4919"
       style="text-align:center;text-anchor:middle">API Documentation</tspan>
  </text>
  <g
     id="g5546"
     transform="translate(-654,0)">
    <g
       transform="matrix(1.1503824,0,0,1.1503824,664.90617,7.6695188)"
       sketch:type="MSLayerGroup"
       id="Group"
       style="fill:none;fill-rule:evenodd;stroke:none;stroke-width:1">
      <path
         inkscape:connector-curvature="0"
         style="fill:url(#linearGradient-1)"
         sketch:type="MSShapeGroup"
         id="Shape"
         d="M 18.585161,15.789517 4.8890476,23.92219 22.622924,22.718816 23.988782,4.8369849 18.585161,15.789517 l 0,0 z" />
      <path
         inkscape:connector-curvature="0"
         style="fill:url(#linearGradient-2)"
         sketch:type="MSShapeGroup"
         id="path4923"
         d="m 22.651982,22.706587 -1.524226,-10.520291 -4.151816,5.48232 5.676042,5.037971 0,0 z" />
      <path
         inkscape:connector-curvature="0"
         style="fill:url(#linearGradient-3)"
         sketch:type="MSShapeGroup"
         id="path4925"
         d="m 22.672565,22.706587 -11.166716,-0.87659 -6.5574742,2.069309 17.7241902,-1.192719 0,0 z" />
      <path
         inkscape:connector-curvature="0"
         style="fill:url(#linearGradient-4)"
         sketch:type="MSShapeGroup"
         id="path4927"
         d="m 4.9641147,23.901607 2.7895903,-9.138814 -6.1385516,1.312584 3.3489613,7.82623 0,0 z" />
      <path
         inkscape:connector-curvature="0"
         style="fill:url(#linearGradient-5)"
         sketch:type="MSShapeGroup"
         id="path4929"
         d="M 16.974851,17.698885 14.40804,7.6447366 7.0623612,14.530327 l 9.9124898,3.168558 0,0 z" />
      <path
         inkscape:connector-curvature="0"
         style="fill:url(#linearGradient-6)"
         sketch:type="MSShapeGroup"
         id="path4931"
         d="m 23.406406,7.7863955 -6.943707,-5.6711983 -1.933583,6.2511522 8.87729,-0.5799539 0,0 z" />
      <path
         inkscape:connector-curvature="0"
         style="fill:url(#linearGradient-7)"
         sketch:type="MSShapeGroup"
         id="path4933"
         d="m 20.159149,0.0932285 -4.083893,2.256856 -2.576496,-2.287125 6.660389,0.030269 0,0 z" />
      <path
         inkscape:connector-curvature="0"
         style="fill:url(#linearGradient-8)"
         sketch:type="MSShapeGroup"
         id="path4935"
         d="M 0,19.1409 1.7108034,16.020772 0.32690511,12.30374 0,19.1409 l 0,0 z" />
      <path
         style="fill:#ffffff"
         inkscape:connector-curvature="0"
         sketch:type="MSShapeGroup"
         id="path4937"
         d="M 0.23488738,12.186296 1.627261,16.135794 7.6774271,14.778412 14.584811,8.3589638 16.534134,2.1672598 13.464737,0 8.2463631,1.9529554 C 6.6022725,3.4821448 3.4119208,6.5078333 3.2968986,6.564739 3.1830872,6.6228555 1.1901768,10.389529 0.23488738,12.186296 l 0,0 0,0 z" />
      <path
         inkscape:connector-curvature="0"
         style="fill:url(#linearGradient-9)"
         sketch:type="MSShapeGroup"
         id="path4939"
         d="M 5.123935,5.0912445 C 8.6872007,1.5582477 13.280823,-0.52910198 15.043689,1.249504 16.805465,3.02811 14.937142,7.350522 11.373876,10.882308 7.8106107,14.414094 3.2738942,16.616466 1.5122388,14.83786 -0.25062725,13.060465 1.5606692,8.6230305 5.123935,5.0912445 l 0,0 0,0 z" />
      <path
         inkscape:connector-curvature="0"
         style="fill:url(#linearGradient-10)"
         sketch:type="MSShapeGroup"
         id="path4941"
         d="m 4.9641147,23.897975 2.7677966,-9.167873 9.1920877,2.953043 c -3.323535,3.116496 -7.0199848,5.751109 -11.9598843,6.21483 l 0,0 0,0 z" />
      <path
         inkscape:connector-curvature="0"
         style="fill:url(#linearGradient-11)"
         sketch:type="MSShapeGroup"
         id="path4943"
         d="m 14.596919,8.3409234 2.35977,9.3470646 c 2.776272,-2.919141 5.268016,-6.05743 6.48834,-9.939126 l -8.84811,0.5920614 0,0 z" />
      <path
         inkscape:connector-curvature="0"
         style="fill:url(#linearGradient-12)"
         sketch:type="MSShapeGroup"
         id="path4945"
         d="m 23.420935,7.7960816 c 0.944393,-2.8501283 1.16233,-6.93886375 -3.290966,-7.69801007 l -3.654072,2.01833637 6.945038,5.6796737 0,0 z" />
      <path
         style="fill:#9e1209"
         inkscape:connector-curvature="0"
         sketch:type="MSShapeGroup"
         id="path4947"
         d="m 0,19.099734 c 0.13076204,4.703922 3.5245214,4.774025 4.9701685,4.815312 L 1.6308933,16.116422 0,19.099734 l 0,0 z" />
      <path
         inkscape:connector-curvature="0"
         style="fill:url(#radialGradient-13)"
         sketch:type="MSShapeGroup"
         id="path4949"
         d="m 14.610116,8.3554526 c 2.133359,1.3112527 6.432887,3.9446554 6.520062,3.9930854 0.135484,0.07628 1.853673,-2.897348 2.243538,-4.5778824 l -8.7636,0.584797 0,0 z" />
      <path
         inkscape:connector-curvature="0"
         style="fill:url(#radialGradient-14)"
         sketch:type="MSShapeGroup"
         id="path4951"
         d="m 7.728279,14.730102 3.700082,7.138639 c 2.187842,-1.186544 3.901067,-2.632191 5.470212,-4.180753 l -9.170294,-2.957886 0,0 z" />
      <path
         inkscape:connector-curvature="0"
         style="fill:url(#linearGradient-15)"
         sketch:type="MSShapeGroup"
         id="path4953"
         d="m 1.6163642,16.126108 -0.524259,6.242677 c 0.9891907,1.351208 2.3500846,1.468652 3.7775702,1.363316 -1.032778,-2.570443 -3.0959125,-7.710118 -3.2533112,-7.605993 l 0,0 0,0 z" />
      <path
         inkscape:connector-curvature="0"
         style="fill:url(#linearGradient-16)"
         sketch:type="MSShapeGroup"
         id="path4955"
         d="m 16.454224,2.1321478 7.350522,1.0315673 C 23.41246,1.501342 22.207754,0.42860893 20.154306,0.0932285 l -3.700082,2.0389193 0,0 z" />
    </g>
    <g
       transform="matrix(1.1443009,0,0,-1.1443009,663.27597,71.6675)"
       sketch:type="MSLayerGroup"
       id="g4957"
       style="fill:none;fill-rule:evenodd;stroke:none;stroke-width:1">
      <path
         inkscape:connector-curvature="0"
         style="fill:url(#linearGradient-17)"
         sketch:type="MSShapeGroup"
         id="path4959"
         d="M 13.385658,0.00765271 C 6.5478779,0.00765319 6.974873,2.9845551 6.974873,2.9845551 l 0.00762,3.0840402 6.525127,0 0,0.9259774 -9.1168831,0 c 0,0 -4.37549408,-0.4981669 -4.37549408,6.4282723 -4.8e-7,6.926438 3.81902878,6.680812 3.81902878,6.680812 l 2.2792208,0 0,-3.214136 c 0,0 -0.1228558,-3.834006 3.7580463,-3.834006 l 6.4717673,0 c 0,0 3.636081,0.05901 3.636081,-3.5278968 l 0,-5.9308467 c 0,-5e-7 0.552058,-3.58911879 -6.593732,-3.58911879 l 0,0 0,0 z M 9.7876906,2.0815358 c 0.6492024,-4e-7 1.1739134,0.5267685 1.1739134,1.1785167 0,0.6517482 -0.524711,1.1785166 -1.1739134,1.1785166 -0.6492024,5e-7 -1.1739131,-0.5267684 -1.1739131,-1.1785166 -5e-7,-0.6517482 0.5247107,-1.1785167 1.1739131,-1.1785167 l 0,0 0,0 z" />
      <path
         inkscape:connector-curvature="0"
         style="fill:url(#linearGradient-18)"
         sketch:type="MSShapeGroup"
         id="path4961"
         d="m 13.57985,26.907487 c 6.837782,0 6.410785,-2.976902 6.410785,-2.976902 l -0.0076,-3.08404 -6.525127,0 0,-0.925978 9.116883,0 c 0,0 4.375494,0.498166 4.375494,-6.428274 2e-6,-6.9264376 -3.819029,-6.6808115 -3.819029,-6.6808115 l -2.279221,0 0,3.2141355 c 0,0 0.122858,3.834005 -3.758046,3.834005 l -6.471768,0 c 0,0 -3.6360814,-0.05901 -3.6360814,3.5279 l 0,5.930847 c 0,0 -0.5520574,3.589118 6.5937324,3.589118 l 0,0 0,0 z m 3.597968,-2.073883 c -0.649203,0 -1.173913,-0.526768 -1.173913,-1.178516 0,-0.651749 0.52471,-1.178517 1.173913,-1.178517 0.649202,0 1.173913,0.526768 1.173913,1.178517 2e-6,0.651748 -0.524711,1.178516 -1.173913,1.178516 l 0,0 0,0 z" />
    </g>
    <path
       inkscape:connector-curvature="0"
       id="path4967"
       d="m 678.70353,145.41115 c -0.42394,0 -0.83541,0.0884 -1.20005,0.2957 l -11.54205,6.69023 c -0.7469,0.4317 -1.20005,1.24898 -1.20005,2.1169 l 0,13.35698 c 0,0.86745 0.45314,1.68384 1.20005,2.1169 l 3.01498,1.74609 c 1.4644,0.72456 2.00425,0.71347 2.67077,0.71347 2.16819,0 3.40613,-1.32025 3.40613,-3.61579 l 0,-13.18644 c 0,-0.18641 -0.16194,-0.32075 -0.34421,-0.32075 l -1.44569,0 c -0.18524,0 -0.34264,0.13428 -0.34264,0.32075 l 0,13.18644 c 0,1.01749 -1.056,2.03959 -2.76935,1.1797 l -3.13546,-1.84466 c -0.11082,-0.0606 -0.19713,-0.1681 -0.19713,-0.29571 l 0,-13.35698 c 0,-0.12689 0.0855,-0.25658 0.19713,-0.32074 l 11.51702,-6.66676 c 0.1079,-0.0622 0.23582,-0.0622 0.34266,0 l 11.51701,6.66676 c 0.10985,0.0662 0.19557,0.19005 0.19557,0.32074 l 0,13.35698 c 0,0.12754 -0.0628,0.25926 -0.17054,0.32075 l -11.54204,6.66675 c -0.099,0.059 -0.23483,0.059 -0.34266,0 l -2.96492,-1.77112 c -0.0883,-0.0519 -0.20885,-0.0481 -0.29414,0 -0.81844,0.46579 -0.97233,0.51974 -1.73982,0.78699 -0.18917,0.0662 -0.47739,0.16827 0.097,0.49128 l 3.87239,2.28901 c 0.36855,0.21414 0.77858,0.31918 1.20005,0.31918 0.42737,0 0.83307,-0.10504 1.20162,-0.31918 l 11.54204,-6.66676 c 0.74691,-0.43613 1.20005,-1.24945 1.20005,-2.1169 l 0,-13.35698 c 0,-0.86792 -0.45314,-1.68339 -1.20005,-2.1169 l -11.54204,-6.69023 c -0.36168,-0.20721 -0.77768,-0.2957 -1.20162,-0.2957 z m 3.08852,9.54561 c -3.28656,0 -5.24454,1.40426 -5.24454,3.73939 0,2.53322 1.94322,3.22895 5.09747,3.54226 3.77372,0.37086 4.06796,0.92682 4.06796,1.67255 0,1.29348 -1.02829,1.84466 -3.45622,1.84466 -3.05033,0 -3.7199,-0.76409 -3.94435,-2.28744 -0.0264,-0.16337 -0.15247,-0.29571 -0.31916,-0.29571 l -1.4942,0 c -0.18429,0 -0.34266,0.15899 -0.34266,0.34421 0,1.94996 1.05536,4.25727 6.10037,4.25727 3.65219,0 5.75931,-1.44002 5.75931,-3.96156 0,-2.49975 -1.70214,-3.1706 -5.24454,-3.64082 -3.57965,-0.47547 -3.92089,-0.70734 -3.92089,-1.54896 0,-0.69471 0.29004,-1.62405 2.94145,-1.62405 2.36814,0 3.24296,0.51231 3.60171,2.11534 0.0313,0.15074 0.1643,0.27068 0.31918,0.27068 l 1.49419,0 c 0.0922,0 0.18191,-0.0573 0.24564,-0.12361 0.0628,-0.0709 0.10576,-0.15045 0.097,-0.24564 -0.23132,-2.76071 -2.06439,-4.05857 -5.75772,-4.05857 z"
       style="fill:#83cd29;fill-rule:evenodd;stroke:none;stroke-width:1" />
    <g
       id="g5168"
       transform="matrix(0.1159078,0,0,0.1159078,661.31814,118.45947)">
      <ellipse
         cx="150"
         cy="80"
         rx="146"
         ry="76"
         id="ellipse3860"
         style="fill:#6c7eb7;stroke:url(#radialGradient3870);stroke-width:5.5" />
      <path
         d="m 45,125 16,-81 37,0 c 16,1 24,9 24,23 0,24 -19,38 -36,37 l -18,0 -4,21 -19,0 z m 27,-36 5,-30 13,0 c 7,0 12,3 12,9 -1,17 -9,20 -18,21 l -12,0 z"
         id="p"
         style="fill-rule:evenodd;stroke:#ffffff;stroke-width:2;stroke-linejoin:round"
         inkscape:connector-curvature="0" />
      <path
         d="m 116,104 16,-81 19,0 -4,21 18,0 c 16,1 22,9 20,19 l -7,41 -20,0 7,-37 c 1,-5 1,-8 -6,-8 l -15,0 -9,45 -19,0 z"
         id="h"
         style="stroke:#ffffff;stroke-width:2;stroke-linejoin:round"
         inkscape:connector-curvature="0" />
      <use
         transform="translate(134,0)"
         id="p2"
         xlink:href="#p"
         x="0"
         y="0"
         width="100%"
         height="100%" />
    </g>
    <g
       id="g4846"
       transform="matrix(0.09032735,0,0,0.09032735,667.15571,78.06176)">
      <path
         id="path4848"
         d="m 3.6856031,188.16498 c 0.4980545,10.25992 10.7579769,5.4786 15.3400779,2.29105 4.382879,-3.08794 5.677821,-0.49805 6.076264,-6.47471 0.298833,-3.98443 0.697277,-7.86926 0.498055,-11.85369 -6.67393,-0.59767 -13.845914,0.9961 -19.3245136,4.98054 -2.888716,1.99222 -8.0684825,8.56654 -2.5898833,11.05681"
         inkscape:connector-curvature="0"
         style="fill:#f6d2a2" />
      <path
         id="path4850"
         d="m 208.18677,314.27237 c 7.86926,4.88094 22.31284,19.62335 10.45914,26.79533 -11.35564,10.35954 -17.73074,-11.45525 -27.69182,-14.44358 4.28326,-5.87704 9.66225,-11.25603 17.23268,-12.35175 l 0,0 0,0 z"
         inkscape:connector-curvature="0"
         style="fill:#f6d2a2" />
      <path
         id="path4852"
         d="m 67.336965,330.90739 c -9.263813,1.39456 -14.44358,9.76187 -22.21323,14.04514 -7.271595,4.28327 -10.0607,-1.39455 -10.658365,-2.58988 -1.09572,-0.49806 -0.996109,0.49805 -2.789105,-1.29495 -6.773541,-10.65836 6.972762,-18.42801 14.144747,-23.70739 9.961089,-1.99222 16.236575,6.67393 21.515953,13.54708 l 0,0 0,0 z"
         inkscape:connector-curvature="0"
         style="fill:#f6d2a2" />
      <path
         id="path4854"
         d="m 251.91595,186.87004 c -0.49805,10.25992 -10.75797,5.4786 -15.34008,2.29105 -4.38287,-3.08794 -5.67782,-0.49806 -6.07626,-6.47471 -0.29883,-3.98443 -0.69728,-7.86926 -0.49805,-11.8537 6.67393,-0.59766 13.84591,0.99611 19.32451,4.98055 2.7891,1.99222 8.06848,8.56654 2.58988,11.05681"
         inkscape:connector-curvature="0"
         style="fill:#f6d2a2" />
      <path
         id="path4856"
         d="M 224.72218,61.758755 C 260.28327,49.207782 232.49183,0.49805448 201.51284,22.014008 181.19222,4.5821012 153.20156,1.3945525 123.81634,1.3945525 95.028794,3.6856031 67.635798,8.9649805 48.510506,25.699611 17.631128,5.7774319 -10.857587,53.590662 25.400778,65.64358 c -10.160311,39.44591 1.394553,79.68872 -0.199222,119.83191 -1.494163,36.05914 -10.957198,84.37042 9.064592,116.74396 17.033463,27.69183 53.690272,37.55331 83.872372,38.64903 38.54942,1.39455 85.26693,-8.06848 103.99378,-45.42257 17.92996,-35.56109 12.94941,-79.88793 10.65836,-118.23813 -2.29105,-38.74864 1.99222,-78.094939 -8.06848,-115.449025 l 0,0 z"
         inkscape:connector-curvature="0"
         style="fill:#69d7e2" />
      <path
         id="path4858"
         d="m 254.60545,180.79377 c -0.99611,-2.09182 -2.88872,-4.48249 -4.68172,-5.77743 -4.5821,-3.28716 -10.45914,-5.08015 -16.5354,-5.27938 -0.19923,-6.17587 -0.39845,-12.94941 -0.39845,-21.51595 l 0,-7.76965 c -0.0996,-24.50428 -0.39844,-35.26226 -1.79299,-48.709726 -1.09572,-10.558755 -2.78911,-20.320622 -5.17977,-29.484825 8.06848,-3.087937 13.34786,-8.168093 15.43969,-14.742412 1.99222,-6.076265 0.99611,-12.949417 -2.39066,-19.025681 -3.48638,-5.976654 -9.06459,-10.459144 -15.5393,-12.25214 -6.97276,-1.892607 -14.54319,-0.498055 -21.81479,4.382879 C 195.23735,15.140856 187.76654,10.957198 179.39922,7.7696498 164.5572,2.2910506 147.32451,0.19922179 123.91595,0.19922179 l 0,0.99610891 -0.0996,-0.99610891 C 98.814008,2.1914397 80.286381,6.0762646 64.946303,13.547082 58.770428,16.535409 53.291829,20.121401 48.510506,24.305058 41.1393,19.722957 33.469261,18.627237 26.396887,20.818677 19.822568,22.810895 14.144747,27.492607 10.757977,33.568872 7.3712062,39.645136 6.5743191,46.617899 8.8653697,52.594552 11.15642,58.571206 16.435798,63.252918 24.305058,66.141634 21.814786,76.202335 20.519844,86.8607 20.320623,98.614786 c -0.199222,11.455254 0.298832,20.619454 2.091828,41.338524 1.294942,15.43969 1.792996,22.51206 1.992218,31.0786 -6.773541,-0.29884 -13.547082,1.49416 -18.6272371,5.17976 -1.7929961,1.29494 -3.785214,3.58599 -4.6817121,5.77743 -1.29494159,2.78911 -0.79688711,5.27938 1.7929962,6.77355 0.3984435,4.78132 3.0879377,6.97276 7.171984,6.57431 2.988327,-0.29883 6.574319,-1.8926 9.662257,-4.08404 0.697276,-0.49806 1.394553,-0.8965 2.091829,-1.19533 0.298833,-0.0996 0.498054,-0.19922 0.796887,-0.29884 0,0 0.597665,-0.19922 0.796887,-0.29883 0.298833,-0.0996 0.597666,-0.19922 0.796887,-0.39844 -0.199221,4.68171 -0.597665,9.56264 -1.494163,20.71906 -0.996109,12.55098 -1.494163,19.42413 -1.693385,27.09417 -0.896498,28.48871 2.490272,49.20778 12.650584,65.64358 3.187548,5.17976 7.072373,9.76187 11.654474,13.94552 -0.896498,0.59767 -4.681712,3.38677 -5.877043,4.28327 -4.183657,3.18755 -7.072373,5.87704 -8.765758,8.86537 -2.19144,3.88483 -2.19144,7.76965 0.298832,11.8537 l 0.09961,0.0996 0.09961,0.0996 c 1.09572,1.09572 1.693385,1.39455 2.490273,1.39455 l 0.09961,0 0.199222,0 0,0 c 0.09961,0.19922 0.199222,0.29883 0.298833,0.49806 0.298832,0.49805 0.597665,0.89649 0.896498,1.29494 2.490272,2.88871 5.976654,3.58599 10.658366,0.79689 2.490272,-1.29495 4.283268,-2.78911 8.068482,-5.97666 0.09961,-0.0996 0.09961,-0.0996 0.199222,-0.19922 6.076264,-5.17977 9.064591,-7.07237 13.547082,-7.76965 l 1.593774,-0.29883 c 0.597665,0.29883 1.195331,0.49805 1.892607,0.79688 14.144747,5.67783 30.580543,8.76576 47.215563,9.36343 21.51596,0.79689 42.23502,-1.89261 59.76654,-8.26771 4.68171,-1.69338 9.06459,-3.6856 13.24825,-5.87704 2.58988,0.99611 4.78132,3.08794 8.96498,7.96887 0.19922,0.19923 0.19922,0.19923 0.29883,0.39845 0.19922,0.19922 0.19922,0.29883 0.29883,0.39844 0.19923,0.29883 0.49806,0.49805 0.69728,0.79689 3.28716,3.88482 5.4786,5.77743 7.96887,6.87315 3.28716,1.39455 6.47471,0.69728 9.76187,-2.29105 5.77743,-3.58599 6.17588,-9.1642 2.39066,-15.5393 -2.68949,-4.48249 -7.3712,-9.1642 -11.75408,-12.15253 5.17976,-5.08016 9.66225,-11.15642 13.14863,-18.02957 9.56265,-19.12529 13.24825,-41.43813 13.04903,-70.12607 -0.0996,-10.16031 -0.49805,-19.02568 -1.59377,-35.95954 l 0,-0.49805 c 0.49805,0.19922 0.99611,0.49805 1.49416,0.8965 3.08794,2.09183 6.67393,3.78521 9.66226,4.08404 4.08404,0.39845 6.77354,-1.79299 7.17198,-6.57431 l 0,0 c 2.49027,-1.59378 2.98833,-4.08405 1.69339,-6.87316 l 0,0 z M 222.92918,18.328405 c 5.97666,1.593774 11.15642,5.777432 14.34397,11.355642 3.18755,5.57821 4.08405,11.853696 2.29105,17.431906 -1.89261,5.877043 -6.67393,10.558755 -14.14475,13.34786 -1.49416,-5.378988 -3.28715,-10.658366 -5.27937,-15.738521 2.88871,-2.490273 4.28327,-5.57821 1.99222,-9.96109 -2.29106,-4.382879 -6.27549,-4.880934 -10.35954,-3.585992 -2.58988,-3.38677 -5.4786,-6.375097 -8.46692,-9.164202 6.57432,-4.183658 13.34786,-5.378989 19.62334,-3.685603 l 0,0 z M 10.558755,51.996887 C 8.4669261,46.617899 9.1642023,40.242802 12.351751,34.664591 c 3.187549,-5.57821 8.367315,-9.961089 14.543191,-11.754085 6.375097,-1.892607 13.248249,-0.996109 20.021789,2.988327 -3.884824,3.486381 -7.371206,7.470817 -10.359533,11.853696 -5.179766,-2.689494 -10.459144,-3.187549 -13.44747,2.291051 -3.087938,5.877043 0.498054,9.562646 5.57821,12.351751 -0.697276,1.693385 -1.394553,3.486381 -1.992218,5.279377 -0.697276,2.19144 -1.394553,4.48249 -1.992218,6.773541 C 17.431907,61.659144 12.650584,57.375875 10.558755,51.996887 l 0,0 z M 22.611673,187.76654 c -0.09961,0 -0.697276,0.19922 -0.697276,0.29883 -0.298833,0.0996 -0.597666,0.19922 -0.896498,0.39844 -0.796887,0.29884 -1.593774,0.79689 -2.390662,1.39456 -2.789105,1.99221 -6.175875,3.48638 -8.7657584,3.6856 -2.9883269,0.29883 -4.6817121,-0.99611 -4.9805448,-4.5821 2.0918288,-0.69728 2.9883269,-1.19533 3.7852141,-2.39066 l -1.5937744,-1.19534 c -0.5976653,0.79689 -1.1953307,1.09572 -2.9883268,1.69339 l 0,0 c -0.099611,0 -0.099611,0 -0.1992218,0.0996 -1.5937743,-0.8965 -1.892607,-2.29105 -0.9961089,-4.28327 0.7968871,-1.79299 2.5898832,-3.88482 4.0840466,-4.98054 4.7813234,-3.48638 11.1564204,-5.17977 17.5315174,-4.78133 0,2.49028 0.09961,4.98055 0,7.37121 0,0.29883 0,0.49806 -0.09961,0.79689 -0.09961,1.39455 -0.09961,1.99222 -0.199222,2.68949 l 0,0 c -0.298832,2.88872 -0.498054,3.28716 -1.593774,3.78522 l 0,0 z m 30.08249,150.31284 c -0.09961,0.0996 -0.09961,0.0996 -0.199221,0.19922 -3.685603,3.18755 -5.4786,4.48249 -7.76965,5.77743 -3.785214,2.29105 -6.375097,1.793 -8.168094,-0.39844 -0.298832,-0.29884 -0.498054,-0.69728 -0.697276,-0.99611 -0.09961,-0.0996 -0.199222,-0.29883 -0.298832,-0.39845 0,0 0,0 0,-0.0996 0.199221,-1.79299 0.896498,-3.08793 2.689494,-5.87704 0.09961,-0.0996 0.09961,-0.0996 0.09961,-0.19922 1.095719,-1.59378 1.593774,-2.49027 2.091828,-3.58599 l -1.792996,-0.79689 c -0.398443,0.8965 -0.896498,1.69339 -1.892607,3.28716 -0.09961,0.0996 -0.09961,0.0996 -0.09961,0.19922 -1.792996,2.58989 -2.589883,4.18366 -2.988326,5.97665 l -0.09961,0 c 0,0 0,0 -0.09961,0 l -0.199222,0 c -0.199222,-0.0996 -0.498055,-0.29883 -0.896498,-0.69727 -3.884825,-6.17588 -0.796887,-11.45525 7.968872,-18.02957 1.095719,-0.79689 4.781322,-3.38677 5.777431,-4.18366 0.199222,0 0.398444,-0.0996 0.597666,-0.19922 5.378988,4.5821 11.654474,8.56653 18.627237,11.85369 l 0,0 c 0,0.0996 0.09961,0.19923 0.199222,0.29884 -4.084047,0.99611 -7.271596,3.08793 -12.849806,7.86926 l 0,0 z M 219.94086,327.22179 c 3.08793,5.17977 2.98832,9.36342 -0.8965,12.25214 -0.29884,-0.59767 -0.49806,-1.29494 -0.8965,-2.29105 0,-0.0996 0,-0.0996 -0.0996,-0.19922 -1.39455,-3.78522 -2.29105,-5.37899 -3.98444,-7.17199 l -1.39455,1.39456 c 1.49416,1.39455 2.19144,2.88871 3.58599,6.37509 0,0.0996 0,0.0996 0.0996,0.19923 0.49806,1.29494 0.79689,2.09182 1.09572,2.7891 -2.58988,2.19144 -4.88093,2.58988 -7.27159,1.49416 -2.09183,-0.8965 -4.08405,-2.7891 -7.2716,-6.37509 -0.19922,-0.19923 -0.39844,-0.49806 -0.59766,-0.79689 -0.0996,-0.0996 -0.19922,-0.19922 -0.29884,-0.39845 -0.19922,-0.19922 -0.19922,-0.19922 -0.29883,-0.39844 -3.6856,-4.28327 -5.87704,-6.57432 -8.2677,-7.86926 5.57821,-3.18755 10.55875,-6.77354 15.04124,-10.9572 4.18366,3.08794 8.86537,7.67004 11.45526,11.95331 l 0,0 z m 1.39455,-32.27393 c -8.56654,17.23268 -23.70739,29.38521 -44.02802,36.75642 -17.33229,6.27549 -37.85214,8.86537 -59.06926,8.06848 -36.557196,-1.29494 -68.233461,-14.04513 -83.075484,-38.15097 -9.96109,-16.03735 -13.248249,-36.45759 -12.351751,-64.54786 0.298833,-7.67004 0.697276,-14.54319 1.693385,-27.09416 1.09572,-14.14475 1.394553,-18.2288 1.693385,-24.6039 0.199222,-4.5821 0.199222,-9.26381 0.09961,-14.24435 C 26.098054,162.36576 25.6,155.393 24.305058,139.75409 22.512062,119.03502 22.014008,109.97043 22.21323,98.614786 22.512062,83.673152 24.50428,70.524514 28.687938,58.073152 35.461479,37.85214 47.912841,24.205447 65.842802,15.340078 80.884047,7.9688716 99.112841,4.1836576 123.91595,2.1914397 c 23.20934,0 40.14319,2.0918288 54.786,7.4708171 17.53151,6.4747082 30.58054,17.8303502 39.54552,35.2622572 5.77743,14.144747 9.1642,29.385214 10.9572,46.916731 1.39455,13.347855 1.69338,24.105835 1.79299,48.510505 l 0,7.76965 c 0.0996,12.05292 0.29884,20.51984 0.79689,28.98677 0.19922,3.28716 0.29883,4.68171 0.79689,12.55097 1.09572,16.93386 1.49416,25.69961 1.59377,35.85993 0.19923,28.58832 -3.38677,50.60233 -12.8498,69.42879 l 0,0 z m 30.48093,-109.07393 0,0 c -0.0996,0 -0.19922,-0.0996 -0.29883,-0.0996 -1.793,-0.59767 -2.39066,-0.99611 -2.98833,-1.69339 l -1.59377,1.19533 c 0.8965,1.19533 1.79299,1.69339 3.78521,2.39067 -0.39844,3.58599 -2.09183,4.88093 -4.98054,4.5821 -2.58989,-0.19923 -5.97666,-1.793 -8.76576,-3.68561 -0.79689,-0.59766 -1.59378,-0.99611 -2.39066,-1.39455 -0.0996,0 -0.19922,-0.0996 -0.29884,-0.0996 -0.39844,-5.4786 -0.39844,-6.87315 -0.59766,-9.76187 -0.0996,-1.79299 -0.19922,-3.58599 -0.29883,-5.37899 5.57821,0.0996 11.05681,1.793 15.24046,4.88094 1.49417,1.09572 3.28716,3.18755 4.08405,4.98054 0.99611,1.69339 0.79689,3.18755 -0.8965,4.08405 l 0,0 z"
         inkscape:connector-curvature="0"
         style="fill:#000000" />
      <g
         id="g4860"
         transform="translate(108.93491,96.951015)">
        <path
           id="path4862"
           d="m 29.982879,7.1719844 c 0.09961,5.0801556 1.09572,10.6583656 0.199222,16.0373536 -1.394552,2.589884 -3.984436,2.888716 -6.275486,3.884825 -3.187549,-0.498054 -5.877043,-2.589883 -7.171985,-5.57821 -0.796887,-6.076264 0.199222,-11.8536962 0.498055,-17.9299608 0,-0.1992218 3.785214,0.099611 7.171984,1.0957199 2.888716,0.896498 5.57821,2.3906614 5.57821,2.4902723 l 0,0 z"
           inkscape:connector-curvature="0"
           style="fill:#ffffff" />
        <path
           id="path4864"
           d="M 1.7929961,7.570428 C -0.99610895,18.129183 5.4785992,35.361868 16.136965,21.217121 15.340078,15.240467 16.236576,9.463035 16.535409,3.5859922 16.635019,3.0879377 1.892607,6.8731517 1.7929961,7.570428 l 0,0 z"
           inkscape:connector-curvature="0"
           style="fill:#ffffff" />
        <path
           id="path4866"
           d="M 31.17821,11.853697 C 30.978988,8.8653697 30.879377,7.6700389 30.879377,6.1758755 l 0,-0.6972763 -0.697276,-0.1992218 -12.550973,-3.8848249 0,-0.69727624 -1.294941,0.29883269 -0.09961,0 0,0.0996108 L 2.0918288,4.6817121 1.5937743,4.781323 1.3945525,5.2793774 C -0.79688716,10.558755 -0.29883269,18.527626 2.4902724,23.40856 5.677821,28.98677 10.857587,29.086381 16.136965,22.711284 17.631128,25.6 20.420233,27.592218 23.607782,28.090272 l 0.298833,0 0.298832,-0.09961 c 0.398444,-0.199222 0.796888,-0.298833 1.494164,-0.597666 0.09961,0 0.09961,0 0.199222,-0.09961 2.888716,-0.996109 4.084046,-1.792996 5.080155,-3.685603 l 0.09961,-0.09961 0,-0.199222 c 0.298833,-1.792996 0.398444,-3.685603 0.398444,-5.777432 0,-1.494163 -0.09961,-2.888715 -0.298833,-5.67782 l 0,0 z M 15.240467,8.1680934 c -0.09961,1.7929961 -0.199222,2.4902726 -0.298833,3.4863816 -0.199221,3.685603 -0.199221,6.474708 0.09961,9.263813 C 10.359533,26.894942 6.67393,26.894942 4.1836576,22.412451 1.7929961,18.228794 1.2949416,11.15642 3.0879377,6.4747082 L 15.638911,3.2871595 C 15.5393,4.5821012 15.439689,5.8770428 15.240467,8.1680934 l 0,0 z M 29.185992,22.910506 c -0.697276,1.195331 -1.593774,1.792996 -3.984436,2.589883 -0.09961,0 -0.09961,0 -0.199221,0.09961 -0.597666,0.199222 -0.996109,0.398444 -1.294942,0.498054 -2.689494,-0.498054 -4.980545,-2.29105 -6.076265,-4.781323 -0.298832,-2.689494 -0.298832,-5.478599 -0.09961,-9.164202 0.09961,-0.996109 0.09961,-1.693385 0.298833,-3.4863811 0.199222,-2.2910506 0.298833,-3.6856032 0.298833,-4.9805448 L 28.98677,6.9727626 c 0,1.2949417 0.09961,2.4902724 0.298833,5.0801554 0.199222,2.689495 0.298833,4.084047 0.298833,5.677821 0,1.892607 -0.09961,3.585992 -0.398444,5.179767 l 0,0 z"
           inkscape:connector-curvature="0"
           style="fill:#000000" />
      </g>
      <g
         id="g4868"
         transform="translate(48.475508,21.975564)">
        <path
           id="path4870"
           d="M 2.2910506,38.748638 C 11.455253,74.409339 68.532296,65.245136 66.340856,29.484825 63.750973,-13.34786 -6.4747082,-5.0801556 2.2910506,38.748638"
           inkscape:connector-curvature="0"
           style="fill:#ffffff" />
        <path
           id="path4872"
           d="M 67.336965,29.385214 C 66.7393,19.025681 62.157198,10.957198 54.58677,5.8770428 47.81323,1.2949416 38.848249,-0.49805448 29.982879,0.59766537 21.11751,1.7929961 12.949416,5.7774319 7.570428,12.052918 1.5937743,19.025681 -0.69727626,28.189883 1.3945525,38.748638 L 2.2910506,38.549416 1.3945525,38.748638 C 10.757977,75.405447 69.528405,66.540078 67.336965,29.385214 l 0,0 z M 3.1875486,38.549416 C 1.1953307,28.488716 3.3867704,19.922179 8.9649805,13.447471 14.045136,7.570428 21.715175,3.6856031 30.182101,2.5898833 c 8.466926,-1.0957199 16.933852,0.5976653 23.30895,4.9805447 7.072373,4.781323 11.355642,12.25214 11.953307,22.113619 2.091829,34.764202 -53.39144,43.131517 -62.2568094,8.865369 l 0,0 z"
           inkscape:connector-curvature="0"
           style="fill:#000000" />
        <ellipse
           id="ellipse4874"
           ry="10.459144"
           rx="9.6622572"
           cy="32.871593"
           cx="18.029572"
           style="fill:#000000" />
        <ellipse
           id="ellipse4876"
           ry="2.6894941"
           rx="2.2910507"
           cy="35.262257"
           cx="22.412451"
           style="fill:#ffffff" />
      </g>
      <g
         id="g4878"
         transform="translate(129.61779,18.097523)">
        <path
           id="path4880"
           d="M 1.1953307,35.959533 C 8.2677043,76.899611 75.206226,66.042023 65.543969,24.803113 56.877821,-12.25214 -1.1953307,-1.9922179 1.1953307,35.959533"
           inkscape:connector-curvature="0"
           style="fill:#ffffff" />
        <path
           id="path4882"
           d="M 66.440467,24.603891 C 57.575097,-13.547082 -2.1914397,-3.0879377 0.19922179,36.059144 l 0,0.09961 C 3.4863813,55.483268 20.719066,65.344747 39.744747,62.157198 48.410895,60.663035 56.180545,56.479377 61.2607,50.303502 66.83891,43.43035 68.831128,34.56498 66.440467,24.603891 l 0,0 z m -6.67393,24.50428 C 54.985214,54.885603 47.713619,58.870039 39.445914,60.264591 21.416342,63.252918 5.2793774,53.989105 2.0918288,35.859922 -0.09961089,-0.99610895 56.280156,-10.857587 64.647471,25.002335 66.83891,34.46537 65.045914,42.733074 59.766537,49.108171 l 0,0 z"
           inkscape:connector-curvature="0"
           style="fill:#000000" />
        <ellipse
           id="ellipse4884"
           ry="10.459144"
           rx="9.4630346"
           cy="34.166538"
           cx="17.631128"
           style="fill:#000000" />
        <ellipse
           id="ellipse4886"
           ry="2.6894941"
           rx="2.1914396"
           cy="36.557198"
           cx="22.014008"
           style="fill:#ffffff" />
      </g>
      <g
         id="g4888"
         transform="translate(99.536375,70.451072)">
        <path
           id="path4890"
           d="M 13.248249,12.550973 C 5.3789883,13.248249 -0.99610895,22.512062 3.0879377,29.883268 8.4669261,39.645136 20.519844,28.98677 27.990662,29.982878 36.656809,30.1821 43.729183,39.147081 50.602335,31.576653 58.272373,23.209337 47.315175,15.041244 38.649027,11.455252 l -25.400778,1.09572 0,0 z"
           inkscape:connector-curvature="0"
           style="fill:#f6d2a2" />
        <path
           id="path4892"
           d="M 51.598444,19.224903 C 48.908949,15.838132 44.227237,12.750195 39.147082,10.658366 l -0.199222,-0.09961 -0.199222,0 -25.500389,0.996109 C 4.3828794,12.351751 -1.9922179,22.611673 2.2910506,30.381323 c 1.6933852,2.988327 3.9844358,4.48249 7.0723735,4.681712 2.2910509,0.09961 4.6817119,-0.398444 8.3673149,-1.693385 0.298833,-0.09961 0.697277,-0.199222 1.195331,-0.398444 4.980545,-1.693385 6.972763,-2.19144 8.964981,-1.892607 l 0.09961,0 c 2.390661,0 4.382879,0.697277 8.168093,2.19144 4.183658,1.693385 5.478599,2.19144 7.570428,2.390661 2.888716,0.199222 5.378988,-0.796887 7.670039,-3.287159 3.884825,-4.283269 3.685603,-8.86537 0.199222,-13.148638 l 0,0 z m -1.693386,11.754085 c -1.892607,2.091829 -3.785214,2.789105 -6.076264,2.689495 -1.792996,-0.09961 -2.988327,-0.597666 -6.972763,-2.19144 C 32.871595,29.783658 30.680156,29.185992 28.090272,29.086381 25.6,28.787549 23.508171,29.285603 18.228794,31.078599 17.730739,31.277821 17.332296,31.377432 17.033463,31.477043 9.7618677,33.967315 6.2754864,33.768093 3.8848249,29.385214 0.29883269,22.910506 5.7774319,14.144747 13.248249,13.447471 l 25.201556,-0.996109 c 4.781323,1.992218 9.064592,4.880934 11.554864,7.968871 2.988327,3.585993 3.087938,7.171985 -0.09961,10.558755 l 0,0 z"
           inkscape:connector-curvature="0"
           style="fill:#231f20" />
        <g
           id="g4894"
           transform="translate(11.953307,0)"
           style="fill:#000000">
          <path
             id="path4896"
             d="M 28.687938,8.2677043 C 25.6,-3.0879377 -0.29883269,-1.3945525 0.29883269,12.152529 1.5937743,22.21323 31.676265,19.523735 28.687938,8.2677043 l 0,0 z"
             inkscape:connector-curvature="0" />
        </g>
      </g>
    </g>
  </g>
  <text
     xml:space="preserve"
     style="font-style:normal;font-weight:normal;font-size:40px;line-height:125%;font-family:Sans;letter-spacing:0px;word-spacing:0px;fill:#000000;fill-opacity:1;stroke:none;stroke-width:1px;stroke-linecap:butt;stroke-linejoin:miter;stroke-opacity:1"
     x="516.90033"
     y="103.95284"
     id="text5606"
     sodipodi:linespacing="125%"><tspan
       sodipodi:role="line"
       id="tspan5608"
       x="516.90033"
       y="103.95284"></tspan></text>
</svg>
