<?xml version="1.0" encoding="UTF-8" standalone="no"?>
<svg width="700px" height="184px" viewBox="0 0 700 184" version="1.1" xmlns="http://www.w3.org/2000/svg" xmlns:xlink="http://www.w3.org/1999/xlink" xmlns:sketch="http://www.bohemiancoding.com/sketch/ns">
    <!-- Generator: Sketch 3.3.2 (12043) - http://www.bohemiancoding.com/sketch -->
    <title>Artboard</title>
    <desc>Created with Sketch.</desc>
    <defs>
        <linearGradient x1="84.6975155%" y1="111.399353%" x2="58.2418428%" y2="64.5837087%" id="linearGradient-1">
            <stop stop-color="#FB7655" offset="0%"></stop>
            <stop stop-color="#FB7655" offset="0%"></stop>
            <stop stop-color="#E42B1E" offset="41%"></stop>
            <stop stop-color="#990000" offset="99%"></stop>
            <stop stop-color="#990000" offset="100%"></stop>
        </linearGradient>
        <linearGradient x1="116.651024%" y1="53.1701244%" x2="1.74616041%" y2="41.0598579%" id="linearGradient-2">
            <stop stop-color="#871101" offset="0%"></stop>
            <stop stop-color="#871101" offset="0%"></stop>
            <stop stop-color="#911209" offset="99%"></stop>
            <stop stop-color="#911209" offset="100%"></stop>
        </linearGradient>
        <linearGradient x1="50.3513231%" y1="219.327131%" x2="49.8497643%" y2="7.82868176%" id="linearGradient-3">
            <stop stop-color="#871101" offset="0%"></stop>
            <stop stop-color="#871101" offset="0%"></stop>
            <stop stop-color="#911209" offset="99%"></stop>
            <stop stop-color="#911209" offset="100%"></stop>
        </linearGradient>
        <linearGradient x1="50.012428%" y1="30.7049595%" x2="66.4830414%" y2="63.1453852%" id="linearGradient-4">
            <stop stop-color="#FFFFFF" offset="0%"></stop>
            <stop stop-color="#FFFFFF" offset="0%"></stop>
            <stop stop-color="#E57252" offset="23%"></stop>
            <stop stop-color="#DE3B20" offset="46%"></stop>
            <stop stop-color="#A60003" offset="99%"></stop>
            <stop stop-color="#A60003" offset="100%"></stop>
        </linearGradient>
        <linearGradient x1="46.1741749%" y1="17.289515%" x2="49.9323342%" y2="82.1221721%" id="linearGradient-5">
            <stop stop-color="#FFFFFF" offset="0%"></stop>
            <stop stop-color="#FFFFFF" offset="0%"></stop>
            <stop stop-color="#E4714E" offset="23%"></stop>
            <stop stop-color="#BE1A0D" offset="56%"></stop>
            <stop stop-color="#A80D00" offset="99%"></stop>
            <stop stop-color="#A80D00" offset="100%"></stop>
        </linearGradient>
        <linearGradient x1="43.5366382%" y1="15.5936471%" x2="49.7660692%" y2="92.4776332%" id="linearGradient-6">
            <stop stop-color="#FFFFFF" offset="0%"></stop>
            <stop stop-color="#FFFFFF" offset="0%"></stop>
            <stop stop-color="#E46342" offset="18%"></stop>
            <stop stop-color="#C82410" offset="40%"></stop>
            <stop stop-color="#A80D00" offset="99%"></stop>
            <stop stop-color="#A80D00" offset="100%"></stop>
        </linearGradient>
        <linearGradient x1="45.7087957%" y1="58.3456855%" x2="54.2171845%" y2="-46.7167814%" id="linearGradient-7">
            <stop stop-color="#FFFFFF" offset="0%"></stop>
            <stop stop-color="#FFFFFF" offset="0%"></stop>
            <stop stop-color="#C81F11" offset="54%"></stop>
            <stop stop-color="#BF0905" offset="99%"></stop>
            <stop stop-color="#BF0905" offset="100%"></stop>
        </linearGradient>
        <linearGradient x1="27.6242038%" y1="48.1927154%" x2="50.7445145%" y2="51.8192036%" id="linearGradient-8">
            <stop stop-color="#FFFFFF" offset="0%"></stop>
            <stop stop-color="#FFFFFF" offset="0%"></stop>
            <stop stop-color="#DE4024" offset="31%"></stop>
            <stop stop-color="#BF190B" offset="99%"></stop>
            <stop stop-color="#BF190B" offset="100%"></stop>
        </linearGradient>
        <linearGradient x1="-20.4661875%" y1="122.281897%" x2="104.087285%" y2="-6.34211007%" id="linearGradient-9">
            <stop stop-color="#BD0012" offset="0%"></stop>
            <stop stop-color="#BD0012" offset="0%"></stop>
            <stop stop-color="#FFFFFF" offset="7%"></stop>
            <stop stop-color="#FFFFFF" offset="17%"></stop>
            <stop stop-color="#C82F1C" offset="27%"></stop>
            <stop stop-color="#820C01" offset="33%"></stop>
            <stop stop-color="#A31601" offset="46%"></stop>
            <stop stop-color="#B31301" offset="72%"></stop>
            <stop stop-color="#E82609" offset="99%"></stop>
            <stop stop-color="#E82609" offset="100%"></stop>
        </linearGradient>
        <linearGradient x1="55.1661727%" y1="65.2049657%" x2="27.649773%" y2="50.1275621%" id="linearGradient-10">
            <stop stop-color="#8C0C01" offset="0%"></stop>
            <stop stop-color="#8C0C01" offset="0%"></stop>
            <stop stop-color="#990C00" offset="54%"></stop>
            <stop stop-color="#A80D0E" offset="99%"></stop>
            <stop stop-color="#A80D0E" offset="100%"></stop>
        </linearGradient>
        <linearGradient x1="79.3194899%" y1="60.1075179%" x2="23.088288%" y2="24.5506706%" id="linearGradient-11">
            <stop stop-color="#7E110B" offset="0%"></stop>
            <stop stop-color="#7E110B" offset="0%"></stop>
            <stop stop-color="#9E0C00" offset="99%"></stop>
            <stop stop-color="#9E0C00" offset="100%"></stop>
        </linearGradient>
        <linearGradient x1="92.8800277%" y1="72.9056075%" x2="59.8414537%" y2="40.2233379%" id="linearGradient-12">
            <stop stop-color="#79130D" offset="0%"></stop>
            <stop stop-color="#79130D" offset="0%"></stop>
            <stop stop-color="#9E120B" offset="99%"></stop>
            <stop stop-color="#9E120B" offset="100%"></stop>
        </linearGradient>
        <radialGradient cx="32.0008013%" cy="40.2100469%" fx="32.0008013%" fy="40.2100469%" r="69.5729556%" id="radialGradient-13">
            <stop stop-color="#A80D00" offset="0%"></stop>
            <stop stop-color="#A80D00" offset="0%"></stop>
            <stop stop-color="#7E0E08" offset="99%"></stop>
            <stop stop-color="#7E0E08" offset="100%"></stop>
        </radialGradient>
        <radialGradient cx="13.5493795%" cy="40.859922%" fx="13.5493795%" fy="40.859922%" r="88.3861936%" id="radialGradient-14">
            <stop stop-color="#A30C00" offset="0%"></stop>
            <stop stop-color="#A30C00" offset="0%"></stop>
            <stop stop-color="#800E08" offset="99%"></stop>
            <stop stop-color="#800E08" offset="100%"></stop>
        </radialGradient>
        <linearGradient x1="56.5701955%" y1="62.6534951%" x2="3.10480737%" y2="40.7008939%" id="linearGradient-15">
            <stop stop-color="#8B2114" offset="0%"></stop>
            <stop stop-color="#8B2114" offset="0%"></stop>
            <stop stop-color="#9E100A" offset="43%"></stop>
            <stop stop-color="#B3100C" offset="99%"></stop>
            <stop stop-color="#B3100C" offset="100%"></stop>
        </linearGradient>
        <linearGradient x1="46.6619266%" y1="35.5989756%" x2="57.4108513%" y2="100.693616%" id="linearGradient-16">
            <stop stop-color="#B31000" offset="0%"></stop>
            <stop stop-color="#B31000" offset="0%"></stop>
            <stop stop-color="#910F08" offset="44%"></stop>
            <stop stop-color="#791C12" offset="99%"></stop>
            <stop stop-color="#791C12" offset="100%"></stop>
        </linearGradient>
        <linearGradient x1="12.9593594%" y1="12.208142%" x2="79.6388325%" y2="78.0754904%" id="linearGradient-17">
            <stop stop-color="#387EB8" offset="0%"></stop>
            <stop stop-color="#366994" offset="100%"></stop>
        </linearGradient>
        <linearGradient x1="19.127525%" y1="20.7099715%" x2="90.7415328%" y2="88.258201%" id="linearGradient-18">
            <stop stop-color="#FFE052" offset="0%"></stop>
            <stop stop-color="#FFC331" offset="100%"></stop>
        </linearGradient>
    </defs>
    <g id="Page-1" stroke="none" stroke-width="1" fill="none" fill-rule="evenodd" sketch:type="MSPage">
        <g id="Artboard" sketch:type="MSArtboardGroup">
            <g id="dredd1" sketch:type="MSLayerGroup" transform="translate(275.000000, 15.000000)">
                <g id="Group-5" sketch:type="MSShapeGroup">
                    <path d="M105.903584,113.888736 L103.025793,137.476519 L103.654233,134.982481 C103.654233,134.982481 112.220116,145.192594 112.81934,144.009623 C119.811641,130.206142 115.884698,105.357302 117.141577,104.422038 L105.903584,113.888736 L105.903584,113.888736 Z M106.796138,24.0024811 C91.9397245,0.467339623 67.1349192,0.0403584906 61.6904893,0.247122642 C59.7543349,0.0915377358 31.9218599,-1.67136792 15.8234679,23.9708962 C2.69928029,44.8760094 2.94323515,62.2567736 2.94323515,62.2567736 L60.950152,111.782491 L60.9513207,112.167358 L61.1768694,111.976094 L61.4605582,112.218245 L61.4623112,111.733651 L119.734803,62.2523868 C119.734803,62.2523868 119.979926,44.888 106.796138,24.0024811 L106.796138,24.0024811 Z M5.52506651,104.465613 C6.77610214,105.401755 2.86668884,130.273991 9.82772922,144.09034 C10.424323,145.274481 18.9513492,135.054717 18.9513492,135.054717 L19.576867,137.551094 L16.7122233,113.941085 L5.52506651,104.465613 L5.52506651,104.465613 Z" id="Fill-1" fill="#0A0B09"></path>
                    <path d="M14.6457648,124.984981 C14.6457648,124.984981 61.932399,110.338651 105.975164,124.984981 C110.666694,126.545217 114.497515,92.9801132 114.497515,92.9801132 L119.424235,64.7625094 L59.4224394,95.5645189 L1.19640143,61.9543774 L5.2077791,88.6731604 L14.6457648,124.984981" id="Fill-3" fill="#0A0B09"></path>
                    <path d="M116.263924,116.34183 C122.266382,113.190358 120.36295,108.252 120.471634,107.698679 C125.806796,80.5529151 120.576812,48.5038868 120.471634,49.048434 C118.476755,59.3793302 82.5569572,78.8025849 61.4412755,89.4080943 C40.3691259,78.8277358 4.38680523,59.3831321 2.39134204,49.048434 C2.28645606,48.5044717 -2.93622328,80.5128491 2.39134204,107.624104 C2.50002613,108.17684 0.599223278,113.108764 6.59320903,116.256434 C12.5871948,119.403811 13.4289121,121.719453 13.5659359,127.366717 C13.7029596,133.014274 14.3585701,135.42233 10.2189335,137.644094 C6.07929691,139.865858 4.08324941,143.754896 4.08324941,143.754896 L6.31448694,154.865472 C6.31448694,154.865472 8.97228029,146.845245 21.6541354,143.477066 C21.7850238,143.442557 17.0207458,98.1486321 17.0207458,98.1486321 C17.0207458,98.1486321 8.58049169,83.7602453 9.2758361,70.5834906 C9.2758361,70.5834906 27.6752922,85.2169528 50.1337482,94.9556321 C47.6944917,96.1225189 46.2795534,96.7779057 46.2795534,96.7779057 C46.2795534,96.7779057 52.0395178,101.869509 52.4240024,101.784113 C55.4537173,101.109425 58.484601,100.258972 61.4871449,99.2783774 C64.4221995,100.231189 67.3832565,101.057953 70.3434371,101.717142 C70.7273373,101.802538 76.4794133,96.7173679 76.4794133,96.7173679 C76.4794133,96.7173679 75.1202779,96.087717 72.7733444,94.9655755 C95.21281,85.2146132 113.577499,70.6109811 113.577499,70.6109811 C114.27372,83.8044057 105.821779,98.211217 105.821779,98.211217 C105.821779,98.211217 101.050781,143.562462 101.18167,143.597264 C113.881639,146.969538 116.54323,155 116.54323,155 L118.777682,143.875387 C118.777682,143.875387 116.77842,139.981377 112.632941,137.756689 C108.487461,135.532292 109.14424,133.121019 109.281556,127.466443 C109.41858,121.811868 110.261466,119.493594 116.263924,116.34183" id="Fill-4" fill="#BC3C3E"></path>
                </g>
                <path d="M41.8360689,18.3248019 L81.7657838,18.3248019 L79.2701401,70.8367547 C79.2701401,70.8367547 61.908734,82.026 61.8009264,82.026 C61.765867,82.026 44.3317126,70.8367547 44.3317126,70.8367547 L41.8360689,18.3248019" id="Fill-6" fill="#F4B42B" sketch:type="MSShapeGroup"></path>
                <path d="M42.6696057,35.8582264 L42.7481971,37.581066 L52.765247,37.581066 L52.765247,76.2465472 L54.4863705,77.3499717 L54.4863705,37.581066 L69.1157743,37.581066 L69.1157743,77.3499717 L70.8366057,76.2638019 L70.8366057,37.581066 L80.8504418,37.581066 L80.9325392,35.8582264 L42.6696057,35.8582264" id="Fill-7" fill="#AF7C31" sketch:type="MSShapeGroup"></path>
                <path d="M50.1498171,23.3117075 L51.4391259,25.9741981 L54.3671686,26.3789528 L52.2361425,28.4293396 L52.7564822,31.3418774 L50.1498171,29.9462925 L47.5434442,31.3418774 L48.0637838,28.4293396 L45.9324656,26.3789528 L48.8605083,25.9741981 L50.1498171,23.3117075" id="Fill-8" fill="#AE7D31" sketch:type="MSShapeGroup"></path>
                <path d="M61.8009264,23.3117075 L63.0902352,25.9741981 L66.0182779,26.3789528 L63.8872518,28.4293396 L64.4075914,31.3418774 L61.8009264,29.9462925 L59.1945534,31.3418774 L59.7148931,28.4293396 L57.5835748,26.3789528 L60.5116176,25.9741981 L61.8009264,23.3117075" id="Fill-9" fill="#AE7D31" sketch:type="MSShapeGroup"></path>
                <path d="M73.3331259,23.3117075 L74.6224347,25.9741981 L77.5504774,26.3789528 L75.4191591,28.4293396 L75.9394988,31.3418774 L73.3331259,29.9462925 L70.7264608,31.3418774 L71.2468005,28.4293396 L69.1157743,26.3789528 L72.0438171,25.9741981 L73.3331259,23.3117075" id="Fill-10" fill="#AE7D31" sketch:type="MSShapeGroup"></path>
            </g>
            <text id="DREDD" sketch:type="MSTextLayer" font-family="Proxima Nova" font-size="60" font-weight="bold" line-spacing="60" fill="#0B0B0A">
                <tspan x="35" y="89">DREDD</tspan>
            </text>
            <text id="No-more-outdated" sketch:type="MSTextLayer" font-family="TitilliumText25L" font-size="28" font-weight="206" line-spacing="35" fill="#0B0B0A">
                <tspan x="435" y="85">No more outdated</tspan>
                <tspan x="435" y="121">API Documentation</tspan>
            </text>
            <g id="Group" sketch:type="MSLayerGroup" transform="translate(41.000000, 118.000000)">
                <path d="M18.5851611,15.789517 L4.8890476,23.9221897 L22.6229236,22.7188157 L23.9887816,4.83698492 L18.5851611,15.789517 L18.5851611,15.789517 Z" id="Shape" fill="url(#linearGradient-1)" sketch:type="MSShapeGroup"></path>
                <path d="M22.6519818,22.706587 L21.1277564,12.1862962 L16.9759404,17.668616 L22.6519818,22.706587 L22.6519818,22.706587 Z" id="Shape" fill="url(#linearGradient-2)" sketch:type="MSShapeGroup"></path>
                <path d="M22.6725647,22.706587 L11.5058492,21.8299971 L4.94837481,23.8993064 L22.6725647,22.706587 L22.6725647,22.706587 Z" id="Shape" fill="url(#linearGradient-3)" sketch:type="MSShapeGroup"></path>
                <path d="M4.96411469,23.9016069 L7.753705,14.7627928 L1.61515341,16.0753773 L4.96411469,23.9016069 L4.96411469,23.9016069 Z" id="Shape" fill="url(#linearGradient-4)" sketch:type="MSShapeGroup"></path>
                <path d="M16.9748507,17.698885 L14.4080402,7.64473662 L7.06236121,14.530327 L16.9748507,17.698885 L16.9748507,17.698885 Z" id="Shape" fill="url(#linearGradient-5)" sketch:type="MSShapeGroup"></path>
                <path d="M23.4064061,7.78639551 L16.4626994,2.11519716 L14.5291161,8.36634939 L23.4064061,7.78639551 L23.4064061,7.78639551 Z" id="Shape" fill="url(#linearGradient-6)" sketch:type="MSShapeGroup"></path>
                <path d="M20.1591487,0.0932284954 L16.0752563,2.35008454 L13.4987597,0.0629595034 L20.1591487,0.0932284954 L20.1591487,0.0932284954 Z" id="Shape" fill="url(#linearGradient-7)" sketch:type="MSShapeGroup"></path>
                <path d="M0,19.1408998 L1.71080343,16.0207721 L0.326905113,12.3037399 L0,19.1408998 L0,19.1408998 Z" id="Shape" fill="url(#linearGradient-8)" sketch:type="MSShapeGroup"></path>
                <path d="M0.234887378,12.1862962 L1.62726101,16.1357943 L7.67742713,14.7784116 L14.5848111,8.35896376 L16.5341342,2.16725983 L13.4647373,0 L8.24636311,1.95295537 C6.60227254,3.48214484 3.41192078,6.50783328 3.29689861,6.56473899 C3.1830872,6.62285545 1.19017676,10.3895288 0.234887378,12.1862962 L0.234887378,12.1862962 L0.234887378,12.1862962 Z" id="Shape" fill="#FFFFFF" sketch:type="MSShapeGroup"></path>
                <path d="M5.12393496,5.09124446 C8.68720071,1.55824771 13.280823,-0.52910198 15.043689,1.24950399 C16.8054654,3.02810996 14.9371422,7.35052202 11.3738764,10.882308 C7.8106107,14.414094 3.27389417,16.6164659 1.51223884,14.8378599 C-0.250627254,13.0604647 1.56066923,8.62303045 5.12393496,5.09124446 L5.12393496,5.09124446 L5.12393496,5.09124446 Z" id="Shape" fill="url(#linearGradient-9)" sketch:type="MSShapeGroup"></path>
                <path d="M4.96411469,23.8979746 L7.73191132,14.7301023 L16.9239988,17.6831451 C13.6004635,20.7996406 9.90401421,23.4342536 4.96411469,23.8979746 L4.96411469,23.8979746 L4.96411469,23.8979746 Z" id="Shape" fill="url(#linearGradient-10)" sketch:type="MSShapeGroup"></path>
                <path d="M14.5969187,8.34092344 L16.9566893,17.6879881 C19.7329613,14.7688466 22.2247047,11.6305575 23.4450294,7.74886196 L14.5969187,8.34092344 L14.5969187,8.34092344 Z" id="Shape" fill="url(#linearGradient-11)" sketch:type="MSShapeGroup"></path>
                <path d="M23.4209352,7.79608158 C24.3653278,4.9459533 24.5832646,0.857217854 20.1299694,0.0980715341 L16.4758967,2.11640792 L23.4209352,7.79608158 L23.4209352,7.79608158 Z" id="Shape" fill="url(#linearGradient-12)" sketch:type="MSShapeGroup"></path>
                <path d="M0,19.0997339 C0.130762045,23.8036564 3.52452143,23.8737593 4.97016849,23.9150463 L1.63089329,16.1164221 L0,19.0997339 L0,19.0997339 Z" id="Shape" fill="#9E1209" sketch:type="MSShapeGroup"></path>
                <path d="M14.610116,8.35545256 C16.7434745,9.66670532 21.0430033,12.3001076 21.130178,12.348538 C21.2656619,12.4248158 22.983851,9.45119002 23.3737157,7.77065563 L14.610116,8.35545256 L14.610116,8.35545256 Z" id="Shape" fill="url(#radialGradient-13)" sketch:type="MSShapeGroup"></path>
                <path d="M7.72827904,14.7301023 L11.4283607,21.8687414 C13.6162034,20.6821969 15.3294283,19.2365498 16.8985729,17.6879881 L7.72827904,14.7301023 L7.72827904,14.7301023 Z" id="Shape" fill="url(#radialGradient-14)" sketch:type="MSShapeGroup"></path>
                <path d="M1.61636417,16.1261081 L1.09210523,22.3687851 C2.08129589,23.7199929 3.44218977,23.8374366 4.86967544,23.7321005 C3.83689743,21.1616577 1.77376294,16.0219829 1.61636417,16.1261081 L1.61636417,16.1261081 L1.61636417,16.1261081 Z" id="Shape" fill="url(#linearGradient-15)" sketch:type="MSShapeGroup"></path>
                <path d="M16.4542241,2.1321478 L23.8047461,3.16371505 C23.41246,1.501342 22.2077541,0.428608927 20.1543056,0.0932284954 L16.4542241,2.1321478 L16.4542241,2.1321478 Z" id="Shape" fill="url(#linearGradient-16)" sketch:type="MSShapeGroup"></path>
            </g>
            <g id="Group" sketch:type="MSLayerGroup" transform="translate(83.000000, 117.000000)">
                <path d="M13.3856577,0.0076527052 C6.54787791,0.00765319482 6.97487296,2.9845551 6.97487296,2.9845551 L6.98249577,6.06859534 L13.5076229,6.06859534 L13.5076229,6.99457269 L4.39073969,6.99457269 C4.39073969,6.99457269 0.0152456236,6.49640581 0.0152456236,13.4228451 C0.0152451359,20.349283 3.83427442,20.1036569 3.83427442,20.1036569 L6.1134952,20.1036569 L6.1134952,16.8895207 C6.1134952,16.8895207 5.99063938,13.0555153 9.8715415,13.0555153 L16.3433088,13.0555153 C16.3433088,13.0555153 19.9793902,13.1145232 19.9793902,9.52761816 L19.9793902,3.59677152 C19.9793902,3.59677102 20.5314477,0.0076527052 13.3856577,0.0076527052 L13.3856577,0.0076527052 L13.3856577,0.0076527052 Z M9.78769057,2.08153585 C10.4368929,2.08153537 10.9616036,2.60830425 10.9616036,3.26005248 C10.9616041,3.9118007 10.4368929,4.4385691 9.78769057,4.4385691 C9.13848824,4.43856959 8.61377753,3.9118007 8.61377753,3.26005248 C8.61377703,2.60830425 9.13848824,2.08153585 9.78769057,2.08153585 L9.78769057,2.08153585 L9.78769057,2.08153585 Z" id="Shape" fill="url(#linearGradient-17)" sketch:type="MSShapeGroup"></path>
                <path d="M13.5798505,26.9074875 C20.4176323,26.9074875 19.9906354,23.930585 19.9906354,23.930585 L19.9830126,20.8465449 L13.4578855,20.8465449 L13.4578855,19.9205675 L22.5747687,19.9205675 C22.5747687,19.9205675 26.9502627,20.418733 26.9502627,13.4922926 C26.9502652,6.5658554 23.1312339,6.81148153 23.1312339,6.81148153 L20.8520131,6.81148153 L20.8520131,10.025617 C20.8520131,10.025617 20.9748709,13.8596224 17.0939668,13.8596224 L10.6221989,13.8596224 C10.6221989,13.8596224 6.98611764,13.8006146 6.98611764,17.387522 L6.98611764,23.3183687 C6.98611764,23.3183687 6.43406019,26.9074875 13.5798505,26.9074875 L13.5798505,26.9074875 L13.5798505,26.9074875 Z M17.1778177,24.8336044 C16.5286152,24.8336044 16.0039047,24.3068362 16.0039047,23.6550877 C16.0039047,23.0033392 16.5286152,22.4765711 17.1778177,22.4765711 C17.8270203,22.4765711 18.3517307,23.0033392 18.3517307,23.6550877 C18.3517331,24.3068362 17.8270203,24.8336044 17.1778177,24.8336044 L17.1778177,24.8336044 L17.1778177,24.8336044 Z" id="Shape" fill="url(#linearGradient-18)" sketch:type="MSShapeGroup"></path>
            </g>
            <g id="Group" sketch:type="MSLayerGroup" transform="translate(132.000000, 116.000000)">
                <path d="M42.927216,0.0606614953 C42.8685231,0.0613810007 42.8091563,0.075444452 42.756776,0.106289646 C42.6521915,0.167932546 42.5863344,0.281140956 42.5863344,0.40287838 L42.5863344,9.12940467 C42.5863344,9.21514953 42.5465637,9.29176967 42.4727084,9.33477163 C42.3986664,9.3778815 42.3083144,9.3778815 42.2340918,9.33477163 L40.8137564,8.5134491 C40.6021379,8.39094467 40.3436602,8.39101807 40.1319946,8.5134491 L34.4620145,11.7987364 C34.2500318,11.9214969 34.121133,12.1576717 34.121133,12.4033022 L34.121133,18.9738767 C34.121133,19.219323 34.2502138,19.4440735 34.4620145,19.5670528 L40.1319946,22.8523401 C40.343977,22.9751366 40.6017737,22.9751366 40.8137564,22.8523401 L46.4837365,19.5670528 C46.6955369,19.4440735 46.824618,19.219323 46.824618,18.9738767 L46.824618,2.5930699 C46.824618,2.34388794 46.6891742,2.11004151 46.4723741,1.9884854 L43.0976559,0.0948826083 C43.0446607,0.065205891 42.9859091,0.0600225743 42.927216,0.0606802023 L42.927216,0.0606614953 L42.927216,0.0606614953 Z M6.45299072,8.26245397 C6.34486441,8.26682857 6.24328012,8.28581487 6.14619806,8.34232193 L0.476216441,11.6276092 C0.264943423,11.750223 0.135336341,11.9735503 0.135336341,12.2207867 L0.146674452,21.0385693 C0.146674452,21.1612205 0.209702023,21.2751095 0.317115936,21.335194 C0.422396965,21.3984543 0.553070489,21.3984543 0.657996037,21.335194 L4.02135143,19.3959256 C4.2344033,19.2688581 4.37359402,19.0478318 4.37359402,18.8027496 L4.37359402,14.6847514 C4.37359402,14.4391209 4.50230381,14.2136783 4.71447556,14.091574 L6.14617369,13.2588645 C6.25303001,13.1968446 6.36774847,13.1676054 6.48705381,13.1676054 C6.60391088,13.1676054 6.72403467,13.1968086 6.82793532,13.2588645 L8.25963348,14.091574 C8.47179806,14.2136783 8.60051356,14.4391209 8.60051356,14.6847514 L8.60051356,18.8027496 C8.60051356,19.0478318 8.7410947,19.2702827 8.95275758,19.3959256 L12.316113,21.335194 C12.4217409,21.3984543 12.5522309,21.3984543 12.6569931,21.335194 C12.7613954,21.2751095 12.8274331,21.1612205 12.8274331,21.0385693 L12.8387712,12.2207867 C12.8387712,11.9735503 12.7106004,11.750223 12.4978912,11.6276092 L6.82792243,8.34232193 C6.73202152,8.28581487 6.62998708,8.26690627 6.52112978,8.26245397 L6.45295347,8.26245397 L6.45299072,8.26245397 L6.45299072,8.26245397 Z M57.4032794,8.34232193 C57.284824,8.34217803 57.1687525,8.3722548 57.0623979,8.43357967 L51.3924178,11.718867 C51.180617,11.8416635 51.0515376,12.0664139 51.0515376,12.3120444 L51.0515376,18.8826176 C51.0515376,19.1296712 51.1901619,19.3536921 51.4037802,19.475795 L57.0283102,22.6926387 C57.23602,22.8117125 57.4896354,22.8206185 57.6987082,22.7039493 L61.1075147,20.7989207 C61.2156871,20.7386895 61.2888629,20.6261877 61.2893174,20.502332 C61.2900339,20.3784404 61.2256863,20.2673977 61.1188775,20.2057433 L55.4148084,16.920456 C55.3079992,16.8593139 55.2330056,16.7354222 55.2330056,16.6124429 L55.2330056,14.5591388 C55.2330056,14.4363782 55.308908,14.3238749 55.4148084,14.262586 L57.1873881,13.2358979 C57.2928339,13.174645 57.4223679,13.174645 57.5282679,13.2358979 L59.3008477,14.262586 C59.406748,14.3238749 59.4712879,14.4363782 59.4712879,14.5591388 L59.4712879,16.1790043 C59.4712879,16.3019462 59.5358275,16.4142667 59.6417279,16.4755556 C59.7480825,16.5370273 59.876709,16.537282 59.9826094,16.4755556 L63.3800521,14.4907311 C63.5909441,14.3677518 63.7209323,14.1424171 63.7209323,13.897555 L63.7209323,12.3119293 C63.7209323,12.0670284 63.5913983,11.8417311 63.3800521,11.7187518 L57.7441593,8.43346457 C57.6380298,8.3717022 57.5217346,8.3423536 57.4032794,8.3422068 L57.4032794,8.34232193 L57.4032794,8.34232193 Z M40.4501496,13.2474388 C40.4797107,13.2474388 40.5145076,13.2547346 40.5410512,13.2700701 L42.4840708,14.3994057 C42.5367937,14.4300681 42.574972,14.4865392 42.574972,14.5476813 L42.574972,16.8063165 C42.574972,16.8676414 42.5371576,16.9241485 42.4840708,16.9546296 L40.5410512,18.0839278 C40.488146,18.1142261 40.4235161,18.1142261 40.3706109,18.0839278 L38.4275912,16.9546296 C38.3746864,16.9239672 38.33669,16.8676414 38.33669,16.8063165 L38.33669,14.5476813 C38.33669,14.4865392 38.3748683,14.4302149 38.4275912,14.3994057 L40.3706109,13.2702529 C40.3971545,13.2549216 40.4205846,13.2476215 40.4501496,13.2476215 L40.4501496,13.2474388 L40.4501496,13.2474388 Z" id="Shape" fill="#404137" sketch:type="MSShapeGroup"></path>
                <path d="M74.3904962,8.18262053 C74.1939198,8.18262053 74.0028019,8.22343087 73.833725,8.31950787 L68.4818985,11.4222782 C68.1355644,11.6224619 67.925127,12.0008541 67.925127,12.4033022 L67.925127,18.5974546 C67.925127,18.999684 68.1355644,19.3776372 68.4818985,19.5784425 L69.879509,20.3883753 C70.5585432,20.7243498 70.8089777,20.7191665 71.1180424,20.7191665 C72.1234131,20.7191665 72.6974556,20.1067523 72.6974556,19.042319 L72.6974556,12.928036 C72.6974556,12.841596 72.6229163,12.7797229 72.5383778,12.7797229 L71.8679801,12.7797229 C71.782077,12.7797229 71.7089013,12.841596 71.7089013,12.928036 L71.7089013,19.042319 C71.7089013,19.5141231 71.2193972,19.9885922 70.4249182,19.5898668 L68.9704951,18.7343419 C68.9191352,18.7062351 68.8795923,18.6566267 68.8795923,18.5974546 L68.8795923,12.4033022 C68.8795923,12.3444956 68.918681,12.2847766 68.9704951,12.2550265 L74.3109575,9.16364447 C74.3609528,9.1348067 74.4204929,9.1348067 74.4700353,9.16364447 L79.8104977,12.2550265 C79.861403,12.2856889 79.9013988,12.3427069 79.9013988,12.4033022 L79.9013988,18.5974546 C79.9013988,18.6566267 79.8718381,18.717222 79.8218601,18.7457317 L74.4700353,21.8371137 C74.4241293,21.8644909 74.3609528,21.8644909 74.3109575,21.8371137 L72.9360719,21.0157912 C72.8951656,20.9916992 72.8392622,20.9935239 72.7997192,21.0157912 C72.4202065,21.2317809 72.348848,21.2568945 71.992969,21.3808236 C71.9052496,21.411486 71.7720779,21.4591964 72.0384204,21.6089686 L73.833725,22.6698246 C74.0046195,22.769112 74.195058,22.8181002 74.3904962,22.8181002 C74.5886611,22.8181002 74.7763733,22.769112 74.9472678,22.6698246 L80.2990929,19.5784425 C80.6454284,19.3762141 80.8558645,18.999684 80.8558645,18.5974546 L80.8558645,12.4033022 C80.8558645,12.0008541 80.6454284,11.6233023 80.2990929,11.4222782 L74.9472678,8.31950787 C74.7795542,8.22343087 74.587073,8.18262053 74.3904962,8.18262053 L74.3904962,8.18262053 L74.3904962,8.18262053 Z M23.4856577,8.3080821 C23.3675077,8.3080821 23.2505875,8.33801497 23.1447776,8.39933987 L17.4747974,11.6732388 C17.2628149,11.7958886 17.1339158,12.0323928 17.1339158,12.2778046 L17.1339158,18.8483777 C17.1339158,19.0940816 17.2629524,19.3186493 17.4747974,19.4415552 L23.1447776,22.7268425 C23.3567601,22.8497484 23.6145567,22.8497484 23.8265392,22.7268425 L29.4965194,19.4415552 C29.7081379,19.3186493 29.8374009,19.0940816 29.8374009,18.8483777 L29.8374009,12.2778046 C29.8374009,12.0320288 29.7085019,11.7958886 29.4965194,11.6732388 L23.8265392,8.39933987 C23.7207293,8.33801497 23.6038077,8.3080821 23.4856577,8.3080821 L23.4856577,8.3080821 L23.4856577,8.3080821 Z M82.3330138,8.34239533 L82.3330138,8.50209673 L82.7761593,8.50209673 L82.7761593,9.6770245 L82.9579617,9.6770245 L82.9579617,8.50209673 L83.4124696,8.50209673 L83.4124696,8.34239533 L82.3330138,8.34239533 L82.3330138,8.34239533 Z M83.5715471,8.34239533 L83.5715471,9.6770245 L83.7419871,9.6770245 L83.7419871,8.8899432 C83.7419871,8.85782017 83.7434347,8.80813977 83.7419871,8.74166753 C83.7398083,8.67395347 83.7419871,8.61492813 83.7419871,8.58192873 L83.7419871,8.54761697 L84.1169559,9.67691513 L84.2987586,9.67691513 L84.6850899,8.54761697 C84.6850899,8.61945523 84.6755294,8.68881123 84.6737521,8.7529465 C84.6730352,8.81536647 84.6737521,8.86223793 84.6737521,8.88983383 L84.6737521,9.67691513 L84.844192,9.67691513 L84.844192,8.34228597 L84.594213,8.34228597 L84.2078817,9.47162153 L83.8329128,8.34228597 L83.5715713,8.34228597 L83.5715471,8.34239533 L83.5715471,8.34239533 Z M75.8221944,12.6087051 C74.2982304,12.6087051 73.3905795,13.2598128 73.3905795,14.3426065 C73.3905795,15.5172436 74.2914135,15.8399676 75.7540181,15.9852501 C77.5038729,16.1572177 77.6402242,16.4151488 77.6402242,16.7609431 C77.6402242,17.3607271 77.1639001,17.616468 76.0380858,17.616468 C74.6236585,17.616468 74.312775,17.2619865 74.2086925,16.5556135 C74.1964369,16.4798683 74.1382441,16.4187262 74.0609788,16.4187262 L73.3678546,16.4187262 C73.2824073,16.4187262 73.2087771,16.4924985 73.2087771,16.5784276 C73.2087771,17.4826113 73.6987354,18.5518998 76.0380858,18.5518998 C77.7315813,18.5518998 78.7083173,17.8845485 78.7083173,16.7153149 C78.7083173,15.5561918 77.9192921,15.2450749 76.2767023,15.0270417 C74.6168399,14.8065622 74.4586725,14.6986595 74.4586725,14.3084041 C74.4586725,13.9862628 74.5927521,13.5554892 75.8221944,13.5554892 C76.9202842,13.5554892 77.3261598,13.793234 77.4925091,14.5365492 C77.5070538,14.606416 77.5684128,14.6620093 77.6402242,14.6620093 L78.3333481,14.6620093 C78.3760719,14.6620093 78.4174323,14.6357272 78.4469758,14.6049554 C78.4760637,14.5721028 78.4965169,14.5350886 78.4924259,14.4909196 C78.3851625,13.2107886 77.5347784,12.6087051 75.8221944,12.6087051 L75.8221944,12.6087051 L75.8221944,12.6087051 Z M57.391917,14.1715168 C57.3692635,14.1715168 57.3441935,14.1715168 57.3237407,14.1828274 L56.2329224,14.821633 C56.1920165,14.8449953 56.1647461,14.8884693 56.1647461,14.9357048 L56.1647461,16.190502 C56.1647461,16.2377375 56.1920165,16.2810302 56.2329224,16.3045752 L57.3237407,16.9319551 C57.3646453,16.9556815 57.4082792,16.9556815 57.4487292,16.9319551 L58.5395471,16.3045752 C58.5799988,16.2812129 58.6077235,16.2377375 58.6077235,16.190502 L58.6077235,14.9357048 C58.6077235,14.8884693 58.5800178,14.8451407 58.5395471,14.821633 L57.4487292,14.1828274 C57.4285128,14.1707829 57.4145874,14.1715168 57.391917,14.1715168 L57.391917,14.1715168 L57.391917,14.1715168 Z" id="Shape" fill="#83CD29" sketch:type="MSShapeGroup"></path>
            </g>
        </g>
    </g>
</svg>